<mxfile host="app.diagrams.net" agent="Mozilla/5.0 (Windows NT 10.0; Win64; x64) AppleWebKit/537.36 (KHTML, like Gecko) Chrome/132.0.0.0 Safari/537.36" version="24.8.4">
  <diagram name="Page-1" id="6BZ4kkQRilAyzrF9UWjL">
    <mxGraphModel dx="1050" dy="557" grid="1" gridSize="10" guides="1" tooltips="1" connect="1" arrows="1" fold="1" page="1" pageScale="1" pageWidth="850" pageHeight="1100" math="0" shadow="0">
      <root>
        <mxCell id="0" />
        <mxCell id="1" parent="0" />
        <mxCell id="_3J3xNJMLdF8mFdf4bfr-1" value="Google Earth Engine" style="shape=image;html=1;verticalAlign=top;verticalLabelPosition=bottom;labelBackgroundColor=#ffffff;imageAspect=0;aspect=fixed;image=https://cdn2.iconfinder.com/data/icons/whcompare-isometric-web-hosting-servers/50/connected-globe-128.png" vertex="1" parent="1">
          <mxGeometry x="102.23" y="50" width="78" height="78" as="geometry" />
        </mxCell>
        <mxCell id="_3J3xNJMLdF8mFdf4bfr-2" value="NASA Firms Website" style="shape=image;verticalLabelPosition=bottom;labelBackgroundColor=default;verticalAlign=top;aspect=fixed;imageAspect=0;image=data:image/png,iVBORw0KGgoAAAANSUhEUgAAAMAAAADACAYAAABS3GwHAAAABHNCSVQICAgIfAhkiAAAAAlwSFlzAAALEgAACxIB0t1+/AAAABx0RVh0U29mdHdhcmUAQWRvYmUgRmlyZXdvcmtzIENTNui8sowAAAAWdEVYdENyZWF0aW9uIFRpbWUAMDEvMDQvMTggCMLwAAAgAElEQVR4nO2dd1hUx9eA32WXKh1EBRQUUEAFu6Ii9i5ibxGNmsSfxhJTjEk0iV+K6VFTjNFYojHGjmIvgL0LFixIkaKIIr3Dfn8gyDZYYNkF3ddnnsedO3fOudyZO+3MGYFYLKYy7LUycwR6Pg9tAM9KZaBFi2oJBa4BQUDQsKep0ZW5WaBsBQiwMusJzAeGV0o9LVrUyx7gZ9+nqUHKJK6wAgQUf/HXAz7VVEyLFnUSDEz1raBFKLcC7LE0mw/8pFq9tGhRK+8MT079WdFFhRVgj6XZemBKDSmlRYs62TA8OXWqvAtyK8AeS9NraAe3Wl4uQocnp7WRjpSpALstTdej/fJreTnZ4JecNrVshE7ZH7stTeejLfxaXl6mPC/jpZS2ALssTdsAVzWhlRYtaqbtiOS0ayDZAigcKWvR8pJRWtYFYrGYnZamPYETmtOnbmDQsBGGjRpi0MiWeg4OGNk3Rr++DQY2NugYGEBREQgExYnFYnIeJ5LzKJHs+DgyHzwgOz6O7IcPyU6Ih0quwGtROb1GJqcFiZ7/mF9u0lcMkbEx9RwcMWnhimmLFhg7O2PQsBEGNg0QmRgjNDRCqK+Pjp6eUvmJCwoozMmhMDuLgoxMch4nkv0wgYx790i7fZu02+FkxT6gICOjhp9MSxnmA0GCHRYmjkCUhpXRKCJjYyzatsO6W3csO3bC1NUVw0a2atUhOyGe1Bs3eHr+HE/OniEl9BqF2dlq1eEVpKlgu4XJVGCdpjVRN4a2dtj07EnDfv2x6tRZ7QW+IrIePCDpzGkeHT5E0qkQcp880bRKLyOvC7ZbmOzmFTFw0zM3p2G//tiPGEX97t6IjI2rnplYTGFuDoXZORTmZCMuKJTo/yMQIDQ0LA76+giEwiqLyn36lMdBJ4jduZ3HJ05QmKNtGVTEHsE2c5OXftXXok0bHCa+hv3w4RjYNKjUvTmPH5MZFUn6/ftkRkaSFRdLTtJjchIfU5CeRmFO7vMKUCC/AhgYIKpnjL5N8WDZyN4eYydnTJydMXZyqrQ+Gffv82D7fzzY+i8ZUa90z1UVhAq2mZu8tNMRDfv0xenNt2jUf4BS6Yvy8ki9dYvkyxdJvnyZ1Fs3yYyMJD89vUb0ExkbY9ysGeatWmPRvj1WHTth1rIVAh2dCu8tyMoibvcu7q/9k2dXrtSIfq8CL2UFsPcbgcus2Vh17FRh2pzERySdOkXi8WM8OXeWjMhINWioGNPmLbDu2pUGffpSv2s39CwtK7zn4cED3P1lJUmnT6lBw5cLwX8vUQVo2Kcvbu++h7VX13LT5aen8+joEeJ27+JxSDB5KSlq0rBy6NevT8M+fWk8YiQNfHqio69fbvq4Pbu5/dMPPAsNVZOG6kFoaFhjM2IvRQUwc3On1SeLsR08pNx0z0JDidmymbi9e4sXo+oQxk5ONB4xCodx4zFxdlaYrig/n8j16wj/4XtyEh+pUcOawaxlK6w7d+H+X2tqJH/B1jpcAURGRri//wHNZ72tcFFKXFREwoH9RKz9k8QTdX+xW0dPD/uhvji/+SbWnbsoTJfzOJGby77m/rq/1KidahHVq0f7H3/m1nffkB4RUSMyBFvNjetkBWjYuw+eX36NmaubwjSxu3Zy59cVJF++rEbN1Eej/gNo8fZcbLx7KEyTGBzEtUULSQ2/pUbNVIPX2vXkpaZweUHNGSoI/q1jFUBoYIjHp5/RfOYshWkSDh/i1vff8vTiBTVqpjnshw7D/b0PsPCU2e8BQEFmJmFLP+Pe6lVq1qzqNJvsT8cVv7K/QxvS79+vMTl1qgJYtm1Hx5W/Yt6yldzrKdfDuP7VFyQcPKBmzWoBAgHO02bQcuEiDOrXl5skfn8gl99bQPbDBDUrVzmsOnSgz8GjPDpxjJAxo2pUVp2pAE6vT6PtV98gNDCQuVaYk82t77/j9srlFOXlaUC72oNhg4a0WvQxzaZMlXs9Kz6Oi3Pf5tHxY+pVTEnqNW5Cn8NHMWzYiGMD+/Hk/LkalSfYUssrgEAopN033+Ey/Q251xODg7j60Yek3LqpZs1qN4369KPdN99h4uQkc01cVETop4u5/csKDWimGIP69ekVEIiZqxuJQSc4McK3xmUKRxvofVbjUqqInoUF3n//g8Oo0TLXxAUFhC39lIvvzCMnKUkD2tVuMqIiif73H/StrLGUGhsIBAIa9u5DvcZNeHjkMOKiIg1p+QIDmwb03Lkbc/eWAJyb+SZZ8XE1Llfwj1ntbAFMmjXD+59/5c7ypEdEcG72TJ6cP68BzeoejuPG0+G7H9A1NZW59ijoBKen+mt0MdDYwQGfbTsxbd4cgLjAfZycNEEtsmtlBbDwbIPPv1vlmijH7Q/k/Oz/kffsmQY0q7uYubrhtfpPLDxk7R6fXQ8jZPw4tXxxpbFo7YH3P1uo17gJULyQd6C7F2l37qhFfsVWV2rGunNneu/ZK7fwhy//mZMTx2sLfxVIvR3O0UEDiNn2n8w1i9Ye9Ak8gJmrq1p1atDDh957A0sLP8Cd335VW+EHEGyuRS1A/S5e9Pxvu2xTLRZzYcF8IurwqmZtos1nS3Gf/45MfFZCPCdG+pF6+3aN69Bs4iQ6LV+Jjq5uaVxGTAz7u3amIDOzxuWXUGtaAMs2beUW/sKcHEImTdAWfhVy7bMlXPrgPZl4I1s7eu3ag0mzZjUq3+OjT+jy2yqJwg9weeF7ai38AIJNtaAFMHVxof+Bw+hbW0vE56enEzJpAo9CgjWk2cuN49hxdP1tFQKRSCI+PTKSo0MHk6Vig0FdExM6L1+Jw0jZxa3IfzZzdtZMlcpTBo1XAH0rKwYcPiYzX52flsaJsaNIOlezCyGvOvaDh+C94W+Zr3HytascHTZEZZuBLFq1puufazB3c5e5lvngAYHdvchPS1OJrMqgIwY0FXT09emxeYtM4S/IziJowjgenzunUnmIROhZWmLYyBZdCwsEuroae/baEmL3B3Ly9SkyawGWbdriveFvEAqrLaPphEn0P3xUbuEHODNrJnlpaRp5fsHfGmwBvH5bhdPESRJx4sJCTowfS8KRwyqRITI0oonfCJoMH45V23YYNnixBzcvJYW0iAieXLpI4qmTPD5zmtzkZJXIrWs0HTuObqtlbe7vrl3DhXdlB8zKIDQwpMOyb3CZ+rrCNKFff8n1b5ZVKX9VoLEK4DpzFh2WfSMTf3bWTO7/s1klMmz79KXjdz+UDuqeXrlM6t07ZCU8BLEYIztbjB0cMWvhir6lJeKCAhKOH+P+3xuJO3iAovx8lehRV3CbPYf2X34lE3/hvQXcXfNnpfKybNMWr5W/YNHaQ2GahCOHOV7Dxm4VIdhoVk/tFcCmSxf67z8ss/k77JuvCf36S5XIcJo0ma6//o64qIjr333D/c2byHgQIzetjq4upk7O2PbrT9MxY7H08CTnyRPurf+LO3/+QXZiokp0qgu0/+Ir3N+eKxEnLizk4MB+PFHSvNxt1tu0XfKZXMPFEtKjojjQtye5T59WS9/qovYKoGtqytBTZzFu4iARH71zByenTVGJjEa9etN3VwAZ0VGcmDCOlEpuBjFzdaX51Gk4T56CQCQi/LdfCP91JTmviHOqXv/+h/3AwRJxmbEP2OfdtVyTCWPHpnT69nvsKvDCUZiTzcH+fUkO0/zeZcEGU/VWgO6r19Bs3HiJuJTwcPb36amSOWChgQF+V66hW8+Yfd7dFH71lUHXxITm02fg8d4HCERCrn35BeG//1bsA+glRs/UlMHHgzF1cZGIj9m9i+Apk+Xe4+w/hfZLv0DfwqLC/INem8iDvQEq0bW6qHUhzMFvhEzhL8zO5uT0qSpbAHGaMIl6dvace2detQo/FK9D3Pz5J3a4t+DWLytpv/QL/C5ewbZPX5XoWlvJS0sj5PUpMp4YHPxG0Gy8pJGaSbNm9Nq8ha4rf1Wq8F9e8kmtKfwAgvVqagH0rawYfuY8hg0bSsSfnT+Pu+vWqkyO34Xi/b+7O7VXWZ4lmDg2pcMXX9JkmC+R/23lwsL3X+pZo+ZTXsdrxUqJuLyUFHa1b0POkye4vvEmbT9Zgp65uVL53fr1Fy5+9GFNqFpl1FYBuv7yGy6T/SXi4g4d5NhYWVv/qmLStCkjr13nwgfvEf5Hze1/dfAdTteVvyIWiznz9iwe7NtbY7I0Tc+Nm3AY7icRl3D8GIXZ2TQeMlTpfCL/28rJN6arWr1qo5YukE2XLjKFPy8lhbPz56lUTv0OHQFICDqh0nyliQnYw862Hjw6eZJem7fg9fNyhIaGNSpTU5xbMJ/sR5L+hWx796lU4Y/dH8jJN2eoWjWVoJaV4I7LvpURfGnJJ2QmxKtUjoWHJwVZmaRHR9f4M+UkJ3Ni8kTOzJ1D89enMyzkNOYtW2lkNbMmQ/aTJ5x5Zx5VPdEm/shhgqb6IxaLNf4s8kKNtwBOEyZi3badRNzj8+e4u2G9ymWZODYlMz6BwtxcleetiLsb1rG7S0d09HQZfuYcTeUYetVlbLp0wXVa1bou8ceOcnzSBLW+j8oiqlq9Vg6hvj5tPlwkGSkWc/7DhdSEXANra3KSkmok7/J4Fh7Onm5eeP++Gp91G7Bo3ZrLn3+mZi1Ui0nTpngseI/mk/1fuH2vBPHHj3Fi8iQKanHhBxBVnKTquE6fgYljU4m4iC3/8ORKzXhqEwh1KMjKqpG8KyI/I4PjkyfS9qOPabNwEWbOzQl5cwYF2ZrRp6oYWFvTcvbbuL3xFromJlXKI/bQQY6/NrFOuKipsQogMjSi1RzJQW5BdhZXv5a1NVEZYtDRK9+Dck1z9asvSY+KwnvVagY7HObouDFkPXyoUZ2UQc/UFNfpb+A2838YSU1VV4aYgACCpk2pM3ZUNdYFajZ2HEa2kvt676xbR3o1F6fKIy8jnXqNbNXeBZLm3pZ/yIiLo/+OXQw9HsTBYUNIrSHnrtVFz9SUFq9Pw33m/6hna1etvCL+3ULIW/L9N9VWamQQrCMS0XLWbIm4/MxMbqysWUdMOU+eYFC/vlInrNQ0D0+GsLdPL4S6evgGn5KZCNA0hjY2tFm4CL+z5+m49ItqF/6bv/1a5wo/gKgmzmu269sfcykPAxFbtpARX7M++dNjYjCwtkbXxJTcWnDoxdOwMHb7eDN4336GHDzMQT9fHp05o1Gd6tnZ4TptOi2mTMXQxqZyN5cUFjmD4rTIyDp59neNfCpdp0tOmxUVFHBLDZ6JU+/dQ6Cjg7GDY43LUpbMuDj29etD2v37DDl4mEY9FLsyr0nMmzfH67vvGXH2PG3e/6DShV9cWFjudY/579TJxUAdMar9Z+rkhF3PXhJC4o4e4dntcBVLkv2Xer+4n23m4lLjsirzLyvpMXsH9uPJ1SsM3refhj281Sbbul07eqz6A79TZ3B/ayb6StrtlFBUUEDO06cvKoCCKdF69vY0GTxY43/ryv5TeQvQbPRomdNawtfWzPE20qRF3qeooACbzhUfjqdu8lJTCRw6mCfXrjJk735snptt1AgCAU0GDmLgzt0MDwrBZeKkcjenKCLl7l0Sz51FR1e3+J0+L/xPQq9xaMwomW5mCylzl7qASiuAQEeHZiMljdvSY6KJP3FclWIUkvvsGan37mHr7aMWeZUlPz2d/UMH8/T6dYYeOoKVHDeF1UHX2JgWU6biFxRC//+2Y9+3X5XyERcVcWv1KhKCTmDt2Qa9Mr6aYo8c5sCwIcQeOihjc9XIuwemTWvWp5CqUaktkFXbdli4STqzvb9jB4V5eSqTUVF4eOokFm5uGNnaqk1mZUJuWhqBQweRGhHB0EOHMXV2qXaepi4utF/8KaMuXMJ75a/VmnF6dPYMh8aORkdXD/c3JRfDwlau4OCoEeSkpCAG7mzcIHGvjq4ujsOHa/xvXJmg0hbAcegwid/ioiIid2xTpYgKiTt+DAQCGnTxUqvcypCbkkLg0EHkPnvG0AOHKj8b8xy7Xr3pu3ETo89eoO37H2Bs37jKOmUnJRE8802C/zcTj7nzcX19Wum1orw8Ts59m/MfS5q1xIcEy6zrOPoOr7IOmkClLUDjfv0lMk++eZMnN26otUYnXjiPuKgIh6FDNf51KS9kJSWxb/AgREZGDN69F6GhkVL36Vtb4/7mW/gFn2Twnr009Ruh8IRMZSjMzSVs5Qr+aenKszt3GHbwMLZlZqrSY6LZO3gg4evXyehSmJdHTOA+ifysPduopFVTV1BZC2Dh6oply5YScQ8OHUTdk8PZSUkknj9HkwGDEBkaqVV2ZUmLjmLf4IFYtmpFv83/lJvWpkNHuv+0nDHnL9Ht+x+pX82FNXFREXf/2cx/Hdpx7uNFuPpPxe94kIQZRMyB/ezq5UPiBcXnMEQFSG5v1NHVpXEd2jKqsgrQqLs3AqFQIu7BoYOqyr5SRO3Zg56JCbbe3hqRXxmehF5jv58vjfv2o/uPP0tcM7Sxwf2NN/E9fBS/40G4T5+BoYID8JRFXFjI/e3b2NWzB0Ez3yQ9Jpqev/9Bt+9/kJjivPTVFxwaN6ZCTxiPL10kI/aBRJx9nz7V0lGdqMwWqGHXrhK/M+PjeRIWinq//8VE7duL17JvcJkwkZjDhzSgQeWIPX6Mo69Poe9f60kOv8XTGzdw9Z+Cw6DBGFhaqkRGUUEBkbt3EvbLLyQ9t8Y1c3ahz1/rqN+mbWm6zIcPCZkzmwdK/t0KcnNJOH2a5uNf+Pi36dARXVNT8jTg67OyqMQaVKivLzOvnXT1CgVSXgXURfqDGB6ePoXj0GHoW1iQWwcO1Eg8f54nYWF0/+Enleabl57OvX+3cHPNap6Fh5fGN/Udjs8vv0ksjMUdP0bw27PJiIutlIz4oBM0L+MtwsDaGmtPTxJOnqz+A9QwKrEFMm3mhImUo6uEU6c0ahsSvn4djbp1p9nwEdyqpWcLGNrY4DBwEM6jRmPr7S3jobk6ZMbHc+efzYSvXy8zU9N56f/R9p0FEnEXv/yCy8u+rpKsR2fPUZSfL6G/TcfOxIfUgQqgikysPTxkLDATL2j2lPbIgAC8f8qg5Rtv1qoKIDIyws6nJ04jR9Gkf3+VdXFKSLx4gfB164jcs1umC2LcuDE+K3+lcZk++rPbtwme8zaPzp2tssy06ChSIyOxaNGiNM6mXe2yflWESsYAlq1aS/zOSU7m2b27Cvv/DTt3ofXMmeSmpiKQY1siFosRCIUUZGVx5fvvyJZzDKqusTGtZ/6v2K132aZGIEDXyIirP/7IjT9X0/adBTTo4qX4BQsEtJg4EQMLy+K9q+Vt/xOLEYhEPDp3lqSrVxWnkxaho0PDzl1wGjECh8GDMVWxsV5eWhrRgYGEb9xAwinJr66FqysCHR0s3dzptuybF7M8YjHxJ09y+sMPyIiLw7hJEwQ6QnKfJZObmlop+eKiIp6EhkpUAAt392LX6hUY0WkalbQAZR8cIPV+RLnmyM9uh2Nsb4/z6DEV5q1nZsaJmW/JxBdkZyPU16eD9J5j4OaaPynMz+PWX3/R9p0FeMyerbgCiMUUZGbRddXqCnUp4fHly+zoWbFVp037DjQdOhTHIUOxdJM97rW6JF25wr3t27i/aycZcfJPeLT28KDPn2vl7pGwdHXFd28gIkNDxIjR0RGSFHqNXX0rP4uTFHoVl7FjS3+bNG6CsZ19jW6AUgXVnwYVCDBrJnnARcrde+XekpuaSuCokSSXGZQpwnXSazTo1FkmXlxYyMUvv+DOP5Lz5/e2biXknfkU5eeTFh1F9P5AnPxGYNKkiUweJdzfvYugt2cr/bWq37Yt1h7y3X5btW5Nh0UfMfrkaUYFBdPuvfdVXvjToiLZM3AA2328CV25QmHhN3d2ofn4ifI3CAkEGNrYYGBlhcjICF2jeggNDGjYuQsNq7CK/kzqXQr19TFzqv12QdVeCTZs0IB6dpJbH5/dvVPhfblpadz8SzmXiN2WLUMsEMjN5/J330psvn5w/KjU9e8AaD1rdrn63Nq4gcyEBKX0Eejo4Dx2XOm9Vq1b0/6DhYwOOcXY02fp+NHH1G/TpqJsqkzK/UjiT58q93maT5jAyKBgmvSrvEFc8/HjK10Ont2LkHF/YubkrPGVXiVWgquXRb1GDdE1qifx4GnRUUrdKy5QbuN0g46dcJ8yRW4eBdmZFJbJR6inJ3E98dIFYo8fo9X0GRhYWSrUxdzJCaMyp8dUhJOfH23fWcCII0cZe/osnRYvoX7btlVyISKP/MwMog8e4NTC98lKTKSooICi516phboihc+hb25G71Wr6LN6DfpmZgAk37pF1uPHSstu5jscXWNjhTLkhezHiWRLyTBxaFKpPDQRqt8C2NjIvPS02Fil7kVq5bg8Oi3+FD1zczl5iBBQRr6cluL80s8RGhjgUU4rYNOxY6VsakwdHPFa+n806uKlskKfl57GgyNHCJr7Nls6dSBwzChCf/uVkPcWoCMScXrRQh6eO4u+pZXcZ2jcrx+jgkJwnfTChfmVn37g4ORJiCqxH8Cwfn2a9O9fqXKQl5UpU8mM7exrQREvP1R7DFBP6kT3guxsmS+BQiqxUGBkY0PnT5YokaVsnomXL/Hg6FHazJmncEeUnfRWRTUvYkTtD2RDi+bsHTmcm+v+Iv3BC/OC+7t3cW/Hdtz8p7JnyCCu/PDd85auGJGREd2//oZhO/dg7uQMQGpUJPtGj+DsksVYt24tYdOvDC5KTFBIkxEvORapZ1e9jfbqoNoVwMhGstuQl5pKbqpyG9Ir672h1Yw3sG7dutw0ihxjnf5oISJDQ9pJLQABCITC4i/5czIfPqQgJ6dSulWXhp064zBwoMLrJ2b9D1NHBzp9/An3dmyn8Pm4x867B2OCTuL59pzStLfWr2Nbj+7EHCo2Zyg7DsjPSFdqhb5Jn74YV7IAZ0sdd6RnYqqy1rGmqHYXSNfEWCLD/Ows8rOzlbpXJDV2qAiBUEi3Zd9KdoGkKCoqkivraXg4tzaup90772LYoIHENavWrSVmsoxsbCrVZaiIvLQ0kkJDZY4iLYuhtTX9/1rPiIOHcfOfSj07O5kuxqGp/rRb8B4Wrm4gFNL1i6/wCzxQOsuUGnmffaNHcnzO7NJNKwKRiEZeL+y0rq/5kygpE2Z5iIyMcBw8pFJlIeeZ5FkJemam6Ojra7ybU24ZrPAvUQF6xpLu8wqysku/TpXh2d07AFg0b1FuOvsePriMHsO97fI32shbWCvh9EeLcBo+Aq/PPufE3Dk06uJF08FDcPYbIdEaSVu1VoWU+xEknDlNfHAw8adOUpibi/+NW+jWMy73Pttu3bHt1p28jHTiQ0II3/Q3kfv2glhMzOHDhP2xikGb/yEvPZ0G7TuU3nfjr7Wc/XSxzPqLtVTlvrdjO4bW1kp1cVxGj+H6n8qvj2RLWY7qGtVD19CQQjW3ppWh2rZAonqSX/G89HTERcplWjZVSsR9bqxby7BtOyq8r9v/fUnU/gPkZ2bItAJiseLue35WNvd378J9ylRsu3aTWb+oDpmPHvH4yhXigoNIOHOaJ9evl87alJByL0Lp6VE9YxOaDh5C08FDSAoN5dL33/Hw3Fl0dPUkPhIpEfc4+eFCog/KNz2379n7hY4PH/Lk+g0EQiGZDx9Sr1GjcnVo1LkLFs1dSb5zWymd8zMyJH6LDA3Q0Teo1f6Cqj0GkDbgKlJyalMaA0tLog8cIObIkQrTGtvb0+lDBUftSP219YxNcBw0iD6//c7k0Ou4TnoNQKWFP3TV72xu35Z9Y0dz7ddfeHz1qkzhB7hZRZfw9T09GfT3JiZdukKraS+2Koat/oOtPbwVFn6Axr1euKh5cPwYRQUFFObmcnfbfxXKFQiFOI8cqbSe+VmSYwuRgSFCfc36aq2Iao8B9M0lD0bLTVX+yPuyCIRCxMDJRR/KLTzSeM6ajYmDA7lSBl95mRkIdHVxGDCAXit/ZeLFSwzbtgN3/ymYNG6Mjkj1/oCt3N3JSU2t8HlvblhPUlhYleWUzOs/uX69eExRWEhumuK/t6GNDQ06vjBTjzpwoPRa+D+byx2TlOA8YqTCRcjy3mcJmu7jVxSqbwoh9cUtrw+uDMm3wwld9XuF6YT6+nT/8isK8/JfVBixmPYL3uW1S5fx3bGLVq+/jknjqm0Uz0tL48HxY6TFVGzLYu/dg/oKTCPKUpiXx4HXJpEWHV0lnUrQMzUlYvcuWk2fUa7Vpb13j9IxWs6zZ8QFB5Vee3LjBg+VsAC1cnenUecu1dK3NlPtFiAnRXKziZ65WaXuL0tJ3LkvvyRT6lwqeTj7jaDjBx9QWMYVt61X19K58MqSePkyF5Z9ze4Rw1nX0o1dvsO48M2yim8UCHAZNVqp530WeZ/tgwYQGRhYJR0BTB0caDVtOs/u3cP762UKZTn0f+GkIO5kCNnPnklcv7Fhg2zmcmg+dmyV3idK3lOnWwDpQ6N1dCoxg6JgdJSXnsaZzz5VKosO776HoZVV8Y9KtD4Z8fEkhb44qbwgO5vDb73J2S/+j5gjR8hNTUVoYEBscBA5Suwocxk5UunuVXpsLHvHjWHH4EHc+nsjWY8fK9UdKYtJ48YU5edj28WLpnLWD4R6eth16176+/YW2U334Zs3SSy4KcJp6DBERhU7GBAZSfoGLcjJrtXHI4EKpkHzpA641jM1RaCjo9wLLafA3tr0N26TJmHvrRpnspmPHvH01k0Szp4l4cwZEs6fo/W06fh4Fntn0xGJ8Nu1G4FQKNGNKyooQFcJp69mTZvRuGdPYo4eVVqnuJBg4kKC0TczY8DadXILcnkYN2pEwvlzxbNiUgPh+m3aYOroWPxDLKbF2HE07tUboUj3eZSYwtwcipSwgDW2tcWxX38i9uwuN520TVhBTm7trwDyv8HKk5eeLpmhoQECXV2KlHjwsqeIiJ8vYJXlzP88+JkAACAASURBVNKljD5wsEoD18zERB5fvUrC2TMknDvHkxvXZTZ6OPn6lv5fR1e3yuOFElqMG090JSoAgHXLlnRd8hlNyszWZD3fAGRUgQcIIxsbLv74A92X/h8uo0Zzd8f20muOUj6aXEYoP5sjD9fxE7hXQQUwKGmJn5OfkVG6KFpbqX4LIDULo1vPGF0jI6Vqfllzg7LTqVbu7riNn0CzoUPRqeSi1N0d2wldvVpugS+LsZ0dDdtJniZfsrusqgthzQYPwcDSkhw5p8cL9fUxtLIi47nJtcjQkI4L3qX9/HcQlWlh7mz7j5APFyIWi+n7y280GzxYsUCBgCc3bnD9r7V0/3ypRAVo0ruPRLrq4tCnD8a2tqX6y8PQUrIC5GVk1P4WoLoZZCVJGr7pmZqib26uVL+57IsR6unRbMgQWk+dhuOAAVU+5SUyMJD406cqTGfXtVtpvzbz0SPSY2Np2LEjIR8u5OGF8+joPjc2ez5O8f7yKxp2LN+js76ZGc1HjiRsjaw3bB2RCN+t27jw3TfkpWfQ8/vvsWzx4hCR1KgoTi3+hHu7d5XG7Z0wjmk3wzGxt1coMzUqkos//kCb/83C2deXiIAATB0csCmz4Ba5fz9pD2LkV+yiIhr36oVlBSvwIiMjWowZy+XlPytMU2xu/oK8tNRKj23UjUhczQYqTWo3ksjAAEOb+qRERVZ4b37mi5VDKzc3fLdW34+o0NAAZZ7JscwMyaOLFzk6dzZTr4XhPnkyl39dKTNAv7FxfYUVAMBtwiRC1/wpE5+XmYGuiTFD//lXMj49jbC1azm/7GvyMiS7k3rG9cr1FBF95DCpz7ccRh85jNfiJdwL2INt166lC1A5KSnsf92ffKmxWllc/EYwdFP5nukAXMeN59JyxW5bjKWOWcp49Eipd6FJqj0LlJ30WKawmDZWvP2wBCs3d5yH+5X+lvd1ykpKInJ/IMfmzyXxsnJHqyo7Xig7Q5IaE01WUhLH5s7BumUrhsupiA9OHFfKirJR587YeMq6PW852Z96cjbcXFm5kpOLP35R+AUCjBs1wnXceMYcOCz3Hiie1z++YH7p7/PfLMPKzR3L5i2wLTNv//TmjXILPxRPkcrrtklT38NDIu+yiAwMZHRNV7BVszZRbVugtLh48jLSi01fn2PWzEmh/UfDDh1oN/ttmo8YKfN1ExcW8jg0lITz54g6dIhHly6WdqUeh4Ux4XhQhfq4v+ZP2F9/ldv0dv5gIaZl9giLDIrtVW5v306T3n1oNWUqXRZ9zNmvvixNk5+VrfSe4VZTp3FsfvERsRYuzfH56iuaDR4iN23Hd9+j9fQZZD56REFWFnqmJpg2aSLx95Qm7cED9r02kZTIqNK4+LNnSbx6lX6//i6xs60wL69CW5ysJ09Jj49TykVL62nTiT93TibesL4NRlJertMePKjVdkCgihbg6VPSYiU9iVlJHZAHYO/tjd+27UwMPonr2HFym3aBUMjV33/jxHvvEn3ksMQ44uH581xfv65CfRp17Ei/X3+TO/DTrVePnt9+R7dPP5OIdx7uV/ryj7+7gKe3w/H6+BOcnrt7F+rp0fvHn59vE6yYlq9Nxtq9Ja2mTGXSyZMKCz8UD47rNWiAjacntl5eWLdsVW7hv7tzJ//27skjOS3irc2bsPXywrzZi83o1i1bVTiH37iHj8R4pDyajxqNqYODTLx5MyeJwTxA8p07SuWpSarvF0gsJuV+JNbuLzxDWzRvUdrzs/PyosP8d3CWOjsg4fx5nt27i45IREFODvmZmeiIRFi6uqJrYkpeuqxfyVOffUqDdu0xtLJS/DUWi3EaOgyn/YFE7N1bGq0jEtH2f7Ow7+5N4pUr6OjpFnfdBAJ0RCJajB7DtdV/kJ+dTeDUqUwKOcmgNWvY5N2dxt29qe/hQdJ1+XY8YjHoiIToGhqRk5KCZYsWTDgRJFFhMhMTEQgEGNnYkPX4MbEhIdh164ZxBRaZULwWERsSzKUVK4g+clhuGpfhw2k3+22g+Ksv0NFBoKODkY0NXh99zMkli+W2ik18euK7ZYvEDrPyEBkY4PvvfwROnSJhJWol5Rm8KD+flOioWj4CAMH3RgbV1rHbkk/psvCFdWZWUhKBU/xpPfV1XMv4inl6O5x7e/YQEbCHxGvXqqixAKGeXrldHB2RCIFQKGme+/w+RdNyQj09iX0MrfynMOD3VSTfvcPWAf2V2lSuIxLRdtYsunzwIQYWL4wEb//3H8EfL8L3n3/REYnY5/8aKZGR6Jua0aBdOxq0bYtlixbFXR9jExCLyU1PIzUyksTQUOJOnSrfJFkgoIGnJwgEdFvyKaZNmhAwfnxxKysQIDLQ53FoqFwjwwZt2qBvbkFBtvyddNKIxWKMrOuTkRAv8Q4HrPqDVmXOCEuNjmZdW88q7Q1RJ4LvVFABmvv54bt5S+lvcVFR6TRmbmoK9wICCN+6lQchwbXeU1hZ+i1fgeeMN7gXEMCeCePKTWverBl9fviRpv0HlMalRkdz8tPF3N5ePD/fespUbm/fVuGgtDo49u3HyO07+NWhcaU9vFUH/zPnJAb/kQcPsHNU9Rbf1IFKzgeIDQmRWNQS6OiQcv8+R+fPY20bTw7OfIuYE8frVOEHOPbeuzy8eBEXX1+6f/a5wnRtZ/4P/zNnJQp/6Jo/+bt719LCD3B9w/oaLfwAcadPUZCbg4sajyoysbPDsnlzibgqt/BqptoVwNjWFq9FH8nsoX18/TrX/lxdKX80tY2i/HwCXptIVlISXd7/QKI7B2Dt3pKxgfvp88OPpQPXp7fD2T7clyPz5iq3GKhiCrKzeRAURPMRI9Qms2GHDjID4ITzik+VqU1U2Rxaz8yMrp8s5q3bd2k3azbp8fESGdt3746eaeVMo2tjSIuLY69/sZ+dgb+twtLVDTHQYd58JgUF0+T5oeDioiIu/PwTf3t3J+roEY3qfGfXLmw7dVbbhnSH3pK+RHPTUnl4+ZLG350yoUotQJs33uSt23fouugj7gYEsLqlG0EfSW5RNLK2ppESK6d1gQchwRyaPQuhvj7D//mH0XsC6PnV1+g+3w/9OCyMfwcNIPjjj8hX4JZFncSeDEGop4e1u3uNyxLo6NC4e3eJuMRr12RcpNRWlK4AukZGOA8dxrQrV+n383ISLlzgb+9uBLw2kdToaBLOn5fxpeM8RPH8d10jbP06Eq9exaqFK02fH0BdkJPDue++ZVPPHsSdqtj+SF2kx8eTnhCPnVfXihNXk/qtWmEltYYQc+xYjctVFUqvA5g1c6LdzJnoiHTZOXYMEVK+ZVJjY3l05Qr2Zc4Ka9p/ADpS04t1ERsPD/r9+DMN2r44S6sgO5ttI4YTW0uPAXocGkajjh1R9v1WFRff4TKLjlHHjta4XFWhdAuQdOM6W4cOYU1bT5nCX8L9/ZLb/MybNsW2s6xr87pE53cW8NrxIOy8vIqndp+v7YsMDOgwe86L3Wi1jLhzZ6kvtTilcgQCXIZJLnA+vR1OYpmddrUdnRI/OsqGooJChdfu7tsnM9XpPn5CpfKvLcHarSXjDxzC54svS2c4km5cZ6NPD85++23py5907AQN23fQuL7S4fH16xhaWaNnYlpjMhq2bUf9lq0k3vfdgL0UFRZp/PmVDSo7Jxgg+e5d4qXOBmvuOxx9UzNViqlxOrz9NpODg2lSxmHuhZ9/ZqOPDw8vXeLUl1+UGoRZurgw8fAR2r01U1PqyiXl/v1i04tqnitcHq0nT5bp/tytYNdYbUNHjGr/3ZTafG1oaUlzP18VS6mZf2aODozZvZs+335XOsPzLCKCf4cN4fhHH5KfnYUYMYX5eQS8PoXs5ybEIgMD+v30E8PWr0ff3FzjzyFGTO5z82qjBjY1kr+eqSktRo6SeNePrl3l4dUrGn/2yvxTaQsAcGfPbhlnVW3feFPVYlSO+7jxTDl5mmZlVnPDNmxgQw9vouXMaqTGxLBr4niJLp/72HG8duw4Nq0r9hFU0+SmpZHz7Blmciw3VYHb6NEYWVtLxF3/++8akVWTVNsvkHTITEri9q5dEkIate9A4x49VCpHVUHP1IzBq1bju2596YA28/FjdvtPJvB/b5Gd8kzhvTEhIex7c4bEs1q7uTHh4EGs3Vtq/NlyM9IRGRqpPF90dGg/a5bEc+empXJr238af+bKBpW3AABX5XgU7jR3Xk2IqhaNu3dnSnAIHv4vrBjv7Q9kvXc3whV4n5bmxpYtBM58U8I61dDCkr7ffa9yfWsLTgMGUt9dcobp1rZtZEl5h64L1EgFeHjlMjHBwRJxLoMG06iMO29N03Xhh0w6eBir50e85mdlceS9d9k+epTMBp+KCNu4ka3Dh5EcEVEalxxR/kmZ6kCvXr0a2ZTu9f4HEr/FRUVc/r1id5a1EdV7in3O+Z9+xMHH50WEQEC3RYvYPnqU4pvUgImdHYN/+51mZfzmJFy8yIHZs3h843qV8406doy/vDrTfOgwBEIdbm7dqgp1q4yesTHGtralPoZUhdOAgdh3kdwXfC9wH0m3bqpUjrpQyUnx8og4fIiHly9JfPVdBg/BrksX4uTsKVUHTv0HMPi33zGxfXGu2YWVKzj+yccSTrqqSl5mJje2/ltxQjVgZGODUKRLcuR9VPaOBQJ6fPqpTPTZH75XnQw1UyNdoBJOfvWVTFyvL2Tj1EGPTxYzbvee0sKf8egR28eN5ejCD1RS+Gsb9l7FZ55Ju62pDq0mTKBhm7YScREHD8is/dQlVD4LVDbcO7Cf2DNnJAQ27toV9zKHTNd0MLKxYezOXXT/6ONSHSIOHWSddzfu7A3Q+CxETYVWEyYRd/48uenpKslP18SEnp8tlXiX4qIigj//XOPPWp1Qoy0AwIkln8jE9f6/L9BT0sNCdbD38mLK8SCcBw4qjhCLCfr8M7aO8CNNav/Cy4R506Y07d2ba0p40VAW7w8XYSrloe7Gv//yKLRu7PxShLCXSPRZTQpIjY3F2s2V+mVs0/XNzNAzqkfEYfkeDlRBuxkzGLlxU+lizbPISHZMmkjYpk01JrO2MPa/7SAQsH/uHMSF1Z8FaujZhmGrV0u4q8zLyGD7+HEyi551jRpvAQCOLVpEntQBah1nz6ZxV9XbqwuEQgYtX8Hglb+Uuvq4vXsXf3l3JzooSOXyVIWeiQltp03DsWdPdJXwxa+IgT8vp0n37uyZ9rpqxjYCAYN//UXGc9+pZctUOr7QFDXeAgDkpKVRmJeHU9++EvGNvby4umG9UmeCKYNxgwaM2fof7qNHAyAuLOTookUc/uB98pVwa6hJCvPyyE5OpkHr1rgMHkwDD09ERkbkZWQotcusvpsbI//ehPvo0eyd+RZ3yvhEqg49PvqY1uMnSMQ9vnGDPW++Uesd3yqDYKmBvlg9kgRMP3kSW6nFsCtr1hA45+1qZ9+obTtGbdqExXOvaM+iotj71pvE1NINK+UhEApp1LYd9p07Yda4MTpCEclRkeSlpfEsKqrU3aGhhTkNWnvg1K8f9p07k3Q7nEPvvScz8VBV7Lt0YerRY5Jff7GY9X37qEyGplFfBQAaeHgw49RpGbeIO/39uanEsZ2KcPMbge/q1eiZFB8Id2dvAPtmzaqTS/PyMHd0xLpFC6yat8C4YYPiSiESIdI3QCAU8ujaVe4dPKjS9RVDC0umnz6NRdOmEvHnViznyMKFKpOjaQSfq7ECAHR9ZwF9pdYH8tLTWdPDmye3lTuQuSyd357DgO++K/194vPPObns62rr+aoz9r//cB3mKxH3+MYN/uzerdYfelEZBJ8b6Km1AgBMCtiHU79+EnFJ4eGs9fGWOXKpPAZ+/yOdZs8GICMxkb3/e4t7Bw6oVNdXEZ9PFuPzseT0dWFuLmt6dCexGucc10ZqdCFMUdj9xnTSHz6UUKS+mxujNvyt3OKFvj6jNm0uLfwPzpxmTY/u3C1zELQ2VC20HDNWpvADHHh3AY/CwjSun6qDWqZBpclITGTHFH+ZWQSXQYMY/PPycu81tLDktYB9tBxVPNNz8Y9VbBg4gFQljvvUUj6OPXrg96fs8U5X16/j8lrZ+JcBYU+R8DNNCE59EEP2s2RcBkgeDWrXoQM6IhHRZU41L8HUzo7XAvZi37kzhXl57J8/j5CvvnwppuM0TYPWrZm0J6D0ZPkS4s6fY9ukiXXOr6uyCH00VAEA4i9dwtDCEvtOnSTiHbp7k5uWRuyFF/4lG7RqxaSAfdR3cyPlwQO2jhtL+O5d0llqqQL13dx4LWAfxlInvKTGxvL3kMHkqNHLtLrRWAtQQsThQzT09MS6heQphc79+pOTmkrchQvYtm3Ha3v3YWZvT8ypk2wZOYLEGzc0pPHLRX03Nybv249pGRNxgJzUVDb7DuPp/QgFd74cCJboq38WSBqRvj6T9+7DsYfsqfBnV6yg9fjxGNvYcPmvtQTOn1/nPc3VFmxatmTy3n0yhb8wL4+/fYcRVYtNR1RFragAAPomJkzZfwA7BQ51A+fN48Ifq9Ss1ctL4y5eTNyxHSMrSc8ORQUFbBk7hrv792tIM/WikWlQeSEnPZ2NvsOIPS+7mikuKsLCyQkEAo3r+TIENz8//AMDZQq/WCxmx7TXubN/v8Z1VFcQLK4lLUAJQl1d5l6/gYWjo8y1yBMn2OY/mUwV73N9leg2fz4Dln0jE1+Yl8fWSRO5rSIjurpCrWkBSoL3woVYODrKnXlo1qsXbwSH0Nirq8b1rGtBZGjI8FWr5Bb+vMxMNo0aSfjevRrXU91B2EPDs0BlGf7bb3SbN59bu3fzz7ixGFlZ0lDKy5qhhQVtJk0iJzWFuIsXNaRp3aKhhwev7dhJ85KdcWVIi4/nbz8/ouug1awqqBUVQNfIiIlb/8Nj7DgurP6DHdOnk5OaSviePQh19XCUOoFERyik+YCBNHBvSfSpU+TV8MFzdZmOb7zJuE2bMG/SROZa/OXLbBrhR+LNV3dKWeit4QpgZGXNlH17adazF4c+/ogjS5ZIXI8MOkHKg1ic+/ZFKGVGbePmRusxY0hLSCDx1i11ql3rsXB0ZMQfq+n+zjtyD8G+uXMnm8eNJSMxUQPa1R4EH2twEGzh4MDUwP1YOTuzY8YMrm5S7FzVrn17Rq1Zi42bm9zr17dt48inS0iOjKwpdesEAoGALrNm0fvjTzC0tJS5Li4q4vDiTzj5ww8a0K72obEukI2bG9MPH8G8SRM2jx7FjR3by02f/vAh17b8g6mtLY08ZL0vN2jZkraTXgMg/soVlW2zrEs069mTMevX03H6DHSlji0FSI6KYsv4cYT+Wzucd9UGBB/p66q9BWjSuQtT9wUi0tdn7cABxJw5Xan72032Z9A332BkKf94oqQ7dwj+9huubn75PUBAsZ1Ur4WLaD1mjMI0VzdvYv/775OVXDdOb1QXaq8AhhYWfBgVQ0FuLmsH9COhiieKWzg6Mvjb73H39VWYJvbCeU4t/5lbu3dT9BJaMzZo1Yru8+bjOX6CzPiohGcxMRz6eBHXt5ffwr6qCBbpqbcC2HfowOSdO1k/dCgPVbC7yGPsWPov/T8spfauliXh2jXOr/6DsP/+I7cSO85qK47dutFpxhu0GjUKkb6+wnRnf/+No59/TrYGTqyvK6i9Alg5OyPS1yfxpuq8CRuYm9Pj3XfpOmt2uR7nUmJjCf13C9e2bFGpfHVQz9oad19f2k32x6ECf0oRx45ydOlSHmjICXFdQvChmitATVK/eXN6frCQNhMmoCNS7Pm9qLCQqJBgru/Ywe0DB0itpQ6e9IyNadbDh5bDh+M6ZDDG9W3KTZ9w9SrHl33Nzd1166A6TfJSVYASbNu2xXv+O3iMGYOOlEczafIyMog+e4aIo8e4HxzEo+vXNTqDZGZnh4OXFy79+uPcpw/mjRtXeE/CtWuc/mUl17ZseSVnv6rDS1kBSmjQsiWdZsygzfgJGMmZE5dH0p07xF68SNzFi8RduUxyZCSZNeRfSKSvj5WTEzZubth36IBDFy8aeXqi9/yEyoqIDAnm3KpV3Ni5E7H4pX2NNYpg4UtcAUowbdQIz3HjaTtxIraenpW6Nys5meSoKJLu3iU5KpJn0dGkP0ok/dFDclJTyc/JJT87q/jLW3JmrlgMAgG6hoboGhiga2SESYOGGDewwbSRLfVdXLB0aoa1S3PM7OwqbKUk9Hn6lJsBAVz+eyPRpys3faxFlleiApQg0NHByacnHmPG0GLAAMyk3H1XloKcHPKzs8nPzqYwP7/Ue7JYLEYgEBQXfkNDRIaGlSrkMnJyc4k6dZKw7dsJ3xdIxuNX23xBlQg+eIUqQFn0jI1p2q077kOG4NSrF/WbN9e0ShJkPnlC7MUL3Dl0mLtHDvMk4uXem6spXtkKUBahri4NW7fG0asrTbt3x7ZNGywcHKr11a4sGUmPSbpzl9iLF7gfFEzspYs1NvbQ8gJtBZCDSF8fCwcH6rdogY2rGzaurlg0aYxJg4YYmJmia2iErqGhXCtLeRQVFlLwvKuUl5VFemIiaQ8f8vR+BI/Dw3l06xbJUVFkPdWaKagbwfvaCqA0xvVtMLOzxdTWDqumTTFrbI+JTQNMGjVEz6hesfOokoEwkPH4MemPHpGakEBydBQpsbGkPXxIalwchS/hwXx1EW0F0PJKI9JOH2t5ldGIc1wtWmoLIjHaJkDLq4u2BdDySqOtAFpeaUTaDpCWVxltC6DllUbbAmh5pdG2AFpeabQtgJZag7OPj8Tv7JQU4kNDa1Sm4o2zLwE/5anO3ubXfn2JCA6WiHv76DGc5Jxqc+j//o+D/7dUbj4DFy9hwOLFVdIhISyM7JQUrgfs4fqePSTHxFR4j7LyytO5BENzc5bci8DAzKzC/N7Rk++mpSx2np74zJ2Ls48PFk0cFKZLCAsjIjiYCxs3qLxCaLtAdQhbDw+cevTA7/sfWHwvghE//IihublK8vaZO7fCNK19fZUq/BVhaG7O9B07eO/iJTpO9i+38EPxc/eYM4f3Ll7i7aPHsHQoP31l0BGLi3fwvYxBlciVoSitovTl3FMVesyZw+yjxzAwM6+2PAMzMzpO9i/37zlg8ZKKM3qOojwMzMyZffQYrYYpdmhWHk49evD+pcvYeniqpIy81F2gukRyTAwXNm6Ue83O05PWCjzg2Xl4MHDJEnYtWFBtHTpNmaJQB2cfH5V8eafv2IGdHN+uyTExBK9YIdHFcfbxoZO/v4xcAzMz5hw7xufOzmSnpFRLn1dyELyyr2x/XtVU9u+aHBPDgaWK++B2np7MOXYMQzldEJ85cziwdKnShSEiJAQ7T0+ZvJx79MDCwUHu2EJeF+nCxo108veXK0Pe89t5euIsZ8yUHBPD587OMvH3goM5sHQpk9aulZCTnZpKRHAwFg4OZFWzAmjHAHWE+NBQhV9nKC5clSF4xQq58T3nzZOJs3RwkGmBslNTCQsIqJRMj+HD5cZnV3AQ9+bp07mwcSO73n2Xbzt04ENra9aMGqWSAbG2AryinN+wQW68vC+6vEpxYePGanc/SrDz8GDGjh3lVuLN06cTJNVFUgWvZBcIVDsYlZd3eQPk8u5ThIuPDz5z5si9lp2ayj0FXTpFeT6NieF6QIDMl93QzIxO/v6cf97aGJqby60UJ5Yvx0rOSZ7lyY0rp/C29vUt1SUiJIS40FCSo6OJDw1V+GyqQFSzRaF20tnfH2cf2b6oNBHBwVX841e+Clg6ODBoifz5eo/hfnIHjiUErVheaXkg5vzGDXIH152nTOH8xuIWwsPXV2ascD0ggOSYaKwcyxsUy8oN27Ob+LCwcp8Fisci0mOFiJAQ7gUHcX7DRpJjosu9vzK8ki2AooGbNAdYyt0qfn0q+3e1dHBgUCWmGUsIWrmC/eUMnhUhBkKfL6ZJz7IUD4YdSY6JZtASWZ1OrFhebhWnnGvL+/Rm3rHjFVYCaUoqxaDFS0qfWRVdMO0YoI4SERLCir592FHN6c+SL700vebNxUXO1GdyTEy1uiTZKSksa9+OTdOnK7WSLY+ec+Yy79hxlSwC1rqDslUZqktVZdS0XvdCQvi5T2/uBgdXScey185tkD+z1Nl/Cp39p8jE71+6VKlnqUincxs3sMTZiWUd2rPj3XcJCwiocDaoLHYeHoz64cdql5FXciHs/MaNPFWiH1mTgy8ZWSEhLO/TWyKu19x5jJJzmqNLjx64+PioRL+nMdGEBQTgIWcw3Fmqq5idmkpowJ5qyyxLXGgocaGhnFixHAArB0csHR1w8fHB3rMNLj4+ctc+oHgst/3dBdXqCr2SFeDcxg1qLdxV5cSK5fSaO1fuCuzktX+xxNlJJXLObdwgUwHkEbZnj8qmPgHsPT1lZoaexkTzNCa69P0Ympsz+ocfZSpj2Tyq8y5fSVugGrc1Ku+eSuoVqGCAa+ngQGf/KRXrqEBe2TShu5WzLA1curTKf+PO/lMYvHgJb+7YyaLLV/glv4APL12u8BmynqWwcdo0hXKynqVU6x1qB8G1nHMbNigsnKN/VJ016DkFC2Ml3AsJ4Wl0dJXzd/HxYfCSJXj4+krMAI3+8UdcpPYBSNNlyhS58ckxMeWuLSjDKzsIrsn8VX3fNgUzPYZmZvSaO7dK8qTTnC3HzALg+PLlSj+HvPwDly6VO8g1NDNj/rFjzD9+nMFLluDi41Maes2bx1s7dzJ57Vq5MrYtWKAdBL8KhO7Zw72QEFzkGJINWbKEcxs3VuvrDPA0Wv5gGIq/tKF7qjf4fRodzU+9e/PO8eNyB7UuPXrIfT5FbJw+vdo6gbYLVGcI/PxzhdeGyFmsqgpnFXSDjiswnKsscaGhfNW+PecqaG3KIzkmhp/79Kmwy6YsOmII1nRXRd1doJrOvzwZVblHDNwJDuZeSIjc+7r4++Pi41Ptv8E15bn7KQAAAYhJREFUOdsss1NTObNhg8r+xk+io9kwbRqfODuz7d13FT5TWeLCwji3cSOrRo3iYycn7ii5/qFECBbMFAp/BmTN/bRoUSNWjo5YSU33ZqWkVHuQWwHLBW8JhX7ArpqUokVLLWWEQCwWM1MkSgGqv9tZi5a6Q+ofhYXmIgAx7AamaFghLVrUyW4AgVgs5i2R0BGI0qw+WrSolaarC4uidQD+KCiMRsznGp+20QZtUE/4fHVhUTSUWQgTw8/AVMABLVpeXmIoLutAmYWw1YWFKYCfJjTSokWN+P1ZVFRq0ioQS5n0vSEUTgXWqVcnLVrUwutriorWl42QMYX4s7BwPfC6mhTSokVdyBR+UGAL9LwSjACU36OmRUvtJBUYIa/wg5wuUFlmCIWOwHrApwYU06KlpgkGpq4tKp7xkUe5FaCEGcXjgs/QzhBpqRvEAJ+tVfDVL4tSFaCE5xXBD5Dv5FGLFs2yB9itTMEvoVIVoCwzhMKeQE/A8XnQokXdRD8PQWuLioKqksH/AxvxkTOgSnlBAAAAAElFTkSuQmCC;" vertex="1" parent="1">
          <mxGeometry x="96" y="249" width="82" height="82" as="geometry" />
        </mxCell>
        <mxCell id="_3J3xNJMLdF8mFdf4bfr-11" style="edgeStyle=orthogonalEdgeStyle;rounded=0;orthogonalLoop=1;jettySize=auto;html=1;exitX=1;exitY=0.5;exitDx=0;exitDy=0;entryX=0;entryY=0.5;entryDx=0;entryDy=0;" edge="1" parent="1" source="_3J3xNJMLdF8mFdf4bfr-8" target="_3J3xNJMLdF8mFdf4bfr-10">
          <mxGeometry relative="1" as="geometry" />
        </mxCell>
        <mxCell id="_3J3xNJMLdF8mFdf4bfr-8" value="Database" style="shape=datastore;whiteSpace=wrap;html=1;" vertex="1" parent="1">
          <mxGeometry x="270" y="271" width="60" height="60" as="geometry" />
        </mxCell>
        <mxCell id="_3J3xNJMLdF8mFdf4bfr-10" value="Data Processing" style="rounded=1;whiteSpace=wrap;html=1;" vertex="1" parent="1">
          <mxGeometry x="400" y="267" width="90" height="68" as="geometry" />
        </mxCell>
        <mxCell id="_3J3xNJMLdF8mFdf4bfr-12" value="" style="shape=image;verticalLabelPosition=bottom;labelBackgroundColor=default;verticalAlign=top;aspect=fixed;imageAspect=0;image=data:image/png,iVBORw0KGgoAAAANSUhEUgAAAMUAAAD/CAMAAAB2B+IJAAACB1BMVEX////6xRchL1zfLC8RDw0AAAAAAAz81gX+yBcODQ3RpRUAL17/yRP/zA77yRboLCvcAAAGJF4wOFioiT23LT0vL1reHCD8zRXkLC0AHV/unZ4AFE/eJCdEL1jeITDV193hNi7tiSPdFjDma23eGBwUJVfdCRDwq6vdAAvxtbYAGGCFEjnrjY798vLgNTh3fZTlYGL54OAADk1CTHDxnCBscozt7/L1rhz76+sAIF8ADEwtOmT4uxn42troenv2zs6XLUaGjqEAHFPGLTe9wMrzpR5SIkzvkyLoeHnwra7zwMHlZGbiTU87C0TlWyrun6DiSEritCSBbkmkp7ZvWBDpcifGnBTjSCzpcSdtYE7EnjIAAEqLLkmReUanp6YrIw5UT1NWXnx5Lk3sgCWQj48/Mg5+ZBGYeBI6OThYRg/lWCq0jhN5aEt/Lkx1dXRdXFxgTA8hHA05Lg4iISCagEK2lDheVlFIR1WsLUBfE0K1uMOZna0AADn1eRYAAGPJririwhulghOSACy5ABpoLlGxvsqdZneVACpiU3FME0U7H04sADVXRmfauL1MHEm+k54AACzSRS61PTpdNlKURETAUzVvPU6yVTn4ZheeV0DHaC/CTDSEVEeNXURaRVG0UjjIfyy1czXSlCbJkCtaPlKeaz2qfDiUbUGijTqjOkH2fxTYhSTMiCq+24GAAAAgAElEQVR4nNWdiV8bV5aoSyovAi1I2GijkEBUCYmWhMAgsQjJCBRAqFm8sNk4YLzb8b61HWfp8XszkzdvZnpL3Ek60+mZ7km754+cc25tt0pV2sBO+vSvY1RVUt3vnvUuUjHMYUsmE567dOnKlbv37u3euPHo0REijx7duHHv3t27Vy5dmguHM4d+18OSTPjSlbu7R47S0tZ2RJa2Ns2ZozfuXQGeH7vRlIRfXLn3SG73kQZFuv4IwPzoLOFLd6X2N9p6nYgaenTv0o9kZQqAWftAjmmlrc1EVYTl0d1L75ckfOmeMQDd8AcfPrx5//45Se7fv3n1wwc0kSHKvfdEkrl018AB5NY/vH/t+u319jWLxeYUxUFEemGzWNba129fv3b/oUyj/Rzsmrtz7xghfOVGlQpEgKvXPr/djk13OGwgFlPBs0hls7Tfvn7uajUK6mT33alk7q7eigjAw3Ofr+ccpPXmbTfmARrb2vr1cw/0KBiK3wUIQWjTETw493m7xdl08/UsTqdl/fpNHcnhg4TvapWABA+vrecOCECzgDLbP7+PJBqQe4flI5lLjzQIeKNr6xafoz6AS5GGSGxAcv2qRiUAcuUQFBK+RxsSKuHm52vmBKTJPhSXJZfLZSWBPy0uH56owwQ6sdw+pwPZPaBCLh2h1IAI525bnIZWZMPGuyzZ0vz++eVbG72hSJWE2I2N5c39vtFszkVwzEictvVrNAi04VLLCJm7tBoQYd3irCbAznflSvPnlzeg6SEU1lTIaSDqvXW+rwQwLpehVm0O2/o5ykfaWjUsNCVaDTdvVyMggCU7f36DJc03bDcHYsITCW1s9pUsqBcjjVhuX9Uo5G7THOEbFAOE1Os5PQJqIDu/uYHtN2h7LMrxUWj+agVklfOnUhy+5Hgvp2UBvWzOZw29xeZcu04ppFmOOYoB1HC/3emoJuhbDmkAsHXeaGqV/J1PwseML/D8NH7esJu8THNcJb6Shwv5KM9zNEpouS8LH1ptWZbbD2mOKy3pARj0agCEnI6Agyal+ldZbxBaHEOaoPhReXeBYZLMNFAgR4ofgP9GWT4+XBhIw7+qZgjJfK7auGzO9vs0R2N+Ht5VGY4d+/C2TaMG6K/S+V6KAO2GW4on3AyzwEWhzQwe9SaYcTc7ziSBYtHtjsWSAJRkEu5hZpypcFGiobJ7sRxM81EvpZON/WyVw4NhnVM42o4eqR93MS6pDFfXNWoAVx5FJaiOy3LpgeF0dICJQxvzXCyZLDAJr0gR8+YZhisww/E4Eiy4x5mgl0nG4YLoMLOYYJh+AjM+wK+6eYUkwp4v6Z0EOK5RHLt13OMKzXCz3Ucx2Hyu0WVKCd5YKp9I8XG0+iD06zi0LsVMB5lCVKLg0gyzitohjNPDDFPJM+UEU+ajcLF7mlnpX0Q7G3YzybKf9cqegiBZn54jp+qjtnvMafSgYXD5spuaWMoFx/Et/Ar8J59nCmArwWieia/CMTibYJIxrp9hvAVmemVggXg3M+AuM8EK8MXGmTJ4Tp4Hg4tDX8C5Cr9SXuBYBaS3L6cFAX2o/nH0kdlgPXNPyXFtxx6uUww2cOdexZC4KJuKslEwhTI0JMEMM8k0+C90rXuAmYa+74fG5MEloM2UXwT7Wd4t3omVoOBTkJ3vZ9Dg4FgwmmBlNwlFlks6Dl/7Qzl/QNQ1hLikKKLt2JHblD+4fKVl1RdYbxpMYxpcAG48zCwsMGVoP1gFNpeYDxPnkYLJw6sEHEoODxeg+f1wFExsGlTYDy+D6CUsmpYXzA+8qcLg5XBBMKVwsH0WDYjNeVtVx5FqdWRuUMZ0nSr2XLZ5RQ0cL7aEwfgyzCTSYDZLzDTYCESkMrH+YCUOB1lugRF7mxfB3ERD3gGghTcOwMvKAl6HsYuD8Av/G0AUUVn5FBv1SyCbOdqwLQ7LNVkdbVXeQSvinEWNrb7cvuIM3lhlkeGj0FLsc7Hfg1FAAGMC0ykzZQ78AMyDqfi59HShHEwB9FIeZIFPBCuQ6xbHB7x8GcwPrgEH4tgY0sERcKjx4QLEatBHgekHP1v1+/2SYWk93dn+oaKOG3SwohXxoN2nmlJuU1aDn2MTYElMagFazYH2K+AUYByrKQBAY3DHmUJ/sgyenU4R54nyXj8rllEYkYmVkNyQ6k94y+OrALDE8QyTxuyRToJqh5mlCjqNlwXPX+TTq7ykjw2Ng9gc11XvUHOHGprAmNSym2Jg+coSixafjsYhUKJrpxfBqpLEONzRMjPOL+WhUuKlSqSmABQfBdMMLnHwoat+MKsU9BA3zqRBkcxwwr2I4XeACaYkV9dxONsfHNNb1V1VEQ/XnEYMYApg9NByN8eVMR9AF64GwTDAByDW8yRuGVeutWCw+kglWOwTsE/IGsxqAhuEPjbOQCZKxJMJXlRI5FbWR6nDpnjH0Xtaa2o7dl2JTC6LwoD3gk/EtDZQZpaw4Wj7bqwx0uNxlo0ZNdEvmhF4NA/FEjbZa1ih+7HOTQdjQfA2sCbsmvwKONoihrj+MkYIVtLHco7i8K3LweroI3AO1ZoeKIpwuSifxhoUirthNykXFiCEDqTBw6MLyQFeNCGNrYj/sqvphTyfGOjnB+LlcsLLpVcSiXw/nouCx+hwwGmQl8H+H067MSlWmPg0U4mS0jgoYoQi+1Rh4sg9lDGOhhk5bB07J3uEyzfKKrYEnrfiFZMY5LCVlDdKElYBgqmOAM1qCepUJB8Qw6sYU4mNEFNhsPXJ4el4mmf5WBWMNxHFzk8SX0sOj0NdCQYAJZd8oxA7qqrD5jinOAcjQ9yWz/tyGxHpU6GDIAqCN2NQAm8ruKGpq9Pgf1orkrwaQxUGKdAftGW8ANrDBiWw7gMVFqaTGKEIDmTD5HA5H6MViCrkl+JJZhjcDvuMcZMwsgpBAAYuhDlyizIr3+eyc4gUbQ/WHLIxnY/IakhALIcGTWP/QowFR8C//NGYWksDQIzj8sN4BqoJaCueIgbodkdFijSWu+hFbugEP6SJNFSQon3CR3u5/nRMVQrHu5cSmIPgo+BDgTmFlNHEdLnCE7PqU6OVc13CYERNWCRr8pUUY8IxwHQMbQl6DIP7EsNoVAAjiyifnoZCZJqYbgztAMIuhxVtMh9MSLpYBDPhQR/Thbio1ShcycI5iBEJKCBBb0tef5SXuwaiwMKKF/JfIYqFAlEuMcgEMdfQhqoOx5o49S5R2JTIJPUwljjgARW8Kzgx1t2rTFzVAZzvjw+DCSdJJsbOhJoIxkHB6TQn3lQsrYgBVaJiCI2SAqY/TnyGUKKBQfKspKFkT8VkBwB3hwFXmYc+HMeeg4ySXEmSMhPNSlWHo/2YnkJRBF+ZXvTGsD4tR8FGU+nppQJ0txS64R6xVFD0cqKhJbgMKQbEAbYf63KmUF6RKFaGwaHAovoTCWjFklSGjTOFRRGIg+umyeHxeEp1+Vh6QbFnMMMFdxqHLP1RUR0Shq2KQvEI7LhFnoeKQiyioa8S+YrST7FVaBfjh7ydEmuqJIP+B6MJOFzA25KQxnuhEiS5Ero/JnoKuYopF4J8jHRCEFRSJnbDktwAObyQ90Y5ybKk2EIUyGFLVleZMqaPUEgKVtUUPtlYwFSDqxzHlPtxYINuOJASR/kcxMc0uf8wiyYBNQOXwkCKCixgma6MLmLkCFIsYaDB2YRkUqQAQHSiBLoNpFIefbgShRp3oRAjYTyteDuP+iMhwY3RY6Ffdo/IvMuEold6J1QCvBwSMeQl5MzgXYX6Y5UYuhvtFloJA504GaNiNJjGoUeeJ3U5RYEDqKCULyRAVqrN4VScJ8Ulj1GMjxIvSXAQ+kTTEsMwHPbjW/JBnEopQHNCfbUpwDWhbUSLZdBKoiIGD47nsB+h/MZBwBKW02jJXhJWo0ocGcYi1V9ZSchtwKk1nCZhU5DO8WML2AhsVwX6iQ/imBAQOZ64QArneVbS0YXhZKFfGmOwpAIacIPrpMvM4up4uQEK6MG8aOZlt3s6QcprcIZKuR/uvLgEpkamO6BAHEZIHKmRPALaL5f7QfEcjM+9nDzDDKWMODMLgmc4MUZwi4UUhm9Q/PQKJg5oaIHHrivkcQhLQkDFy8sg6HEkshV4d4WtTwHml4AejuJcBSsF8Wge+jjRj/0mpreg14uFG/qybCNkKAjN7r21eb5vfrSUzeVwIl1ZwMjlsqVRnFAn8+khLw/mnk97xaFjBXULtkWGiEloLBMMYqKJr4quzq2iN66QuI0zRfUppiEwuhOJICNaBVSdUZzuiKfILQoshvJFnsybgRFBW9I8dja7sSnN6ZM1ClvVJJ+Eg+dz2dH9zY0QKofjguXFVQ5vO0D0mhjGGj0IfpFCoy0sRcUeSpQTUTC4RTH31rUoCOGFYfBUMojnoquQjabRulI8iU5xnsQ/dJIYm0ghAM5858TGWxoTcbUjV+pb7o14yaAwirMJkB+gB70pdC7s0EqSdB/Rh5c4ZtKdjvMNUIjTA8lVMTikp8U4VQ5Cy/l8cBhNeAAdsUIIejfJLLHxKkRdQRYLoLDgP9H+tB9DxvjKKi9RYIooM8FF4qjYtDxaMPGrehTgpcnxFdEc8VOhO5ZWiLPx3hiMJeO8N5hc8YIt9J4fzRmvPTQlNkDJzW8iCbdQkPxikbiaFxNJqoBzQ15SZlYS8rRbPQrWS4pWDnMTJudxnJhkymm3N1EexnEyizNfm6MG89stCyoFJ+Khxs8XCu4FrN29JNtBKQLhhvcHE2jhShVfn0J08v74AM6BQ1wYhhIGatUgTnswaS+Z2PZVrzUYd7QoDZLYSufJpFcsjoMlL/pelCVzWUmlpm2Ggoy6xt1xZhpME2MDfG4iWE7wkVt9tZWAOwocZP+HxZJbkwVOOKRdIbWYgCS73xsJxbCe5KVUBOVVnOTTvLc5CpybgfC6kJBGZiQtp3l+Qz8HTDef7O5Ya98+8fjM1m6n1RMYDKgyOCFMde5unXn8ZHsNgRxmi80Ich7yVf8CThqKYwysgN1kHjvFN0jhj65yONoCp4gvkVHZOMQKyD+9+yYI0iaIJztbnZ5AYMLjEQTBaiRw3OOZCASEZ1s7T9otwGKI4sKp4RBHJpDIGANLKC5WwJWccmMUfGoaJ5oSOBVZAG26wTih1Oc3S4YIuPVh7cnOUytpvWHbDXk8wNu59Xh7zRgFbLZvI8KnyZgZJ6shu8dJcYmVf12KGBnrQBGMby/j22OFBa63z+KrvhduFNh+/FQINNN+LctEwLp1ot1hRIJLJhEyxohDe0j9WcZC2726xNehgIEPhCUwJtDFIvw1jrPBtwzUQAh2noEGWgOgUQITTwlJ1T18ln02xK0koitAgvOpUMwzqwuQ5WtTcDhnkYd6D0qOcRhnrFS8m9XeAAhrJ54CwQEBaBLhzhNLtUpcrvleccZtAKJmP5gHk1+BMq42RWwcp94rENkGoHiKhrz7Fj2Dzelc35kKHFgH1SSDz06sVYG4fKMbETLXRWb28oiT52pTkFWTZGVVnC0K7Vv0CA7n9hnP4Eh398jISHexaIQiqGJ4uDbI4zW9aUHE2oiw8fHpVfCPVLIwDa5eh2IAV4A478L4cCK2b9MxOJztO8KFC9ahs+FwBrdinx2bLFY1ZW9IljGqxYJydK+mSlAj+h0nyMFHoxxOeRUgkdXzbhKdSUUefaXTg81pOdE5OFKc0a6nvRzRtsL+pXouo56zf6Qcnalji+AkW9v6PRu+0d4Qi0s+0M3jsToUWIB5yXqaxaf5GIdzfQt8ofslo5eMhuG1uPNDkkn5cM8/JJSDtRlEkMDUY51CXL6+EJdejC6QyeA6+QKnXTjNpC4KqiEgWIt7Rqv+VI/3zEYT9Cm51593RAvK5ZPGLdeJJ3CnXcdhOR/x4gTDircuBRTivSXd+uzajgeD6mS1IkSjKspdznIpzZkpkY31Y+9IcrZo0u4qhQzu6gzLl7sVgRS+wNWj4PLefZeO4U6AJIYLL4whGKZbgjjtd09rTuwJ4mF5gVk51iBHoPOJg+bAtZVo/2rdCkRnTMCwNSjeduSsGQQjxaKeDj5hcMI+K8Y+SUZqNLtaJqZ0HBYyEVuTQrNaQxieSgzW4hDVunh+aWFRfSkaiX1WZ09SOLJ3kAGbJHPdTVEQDo1d+bIQrWpRQGTSLJAresDgQzHwPMdx0YpyYA4p7Bc7FHtKSv++xLe/7lDmS5n6cdaIo3Ob9nNcKTKnYNkSrQiH5YzCYLX/UokxjLweRvbjEHmBFF1+r2xPhQJ1At3C21ScrZbAs3Yn1TRfljWjcC3TinA4HgfUYs9+ul9pRjAm7m0QPXY4nlh1E1Wc9LPyJSmZApWEbqHG2XBjcVYvwuAWtbEDGloyoaAZbM5tK1Ww2i+7x+VmDP/D6YunU4QjFUzHoryX6yGXqPYkb86BNoMT2P1sK3G2iiPwmC4UxcYaUNAO8TRAf0KPV1XFmGAHOd1B5nxwcYHtseM1lNXwStdjQvygo8U4qxdP57pT285aFDbH40HNveyzVOa9IB0iQ3R/R0eqi7x+3qHYU8LLK5dPgtP7cQCtHjiADN6xOBqkcLZ3akc/YCyc0oqXIh8EJH8He/L06y6iCOhwxYqG3axKUST+ElPskUSz1sUjbDsbobA5dgZ1b7WncJFMkinp4Ovnl3vAsgwuqZCxsiSiWxwozmpF6+UmFFWKIKpQWyUZFB62U5ecVu3p/3hZiuKU0NNx4DirEY+VUochhc35WK8I4gIxOYuZWESPak+MkBJXD0QZE8AtDhxntTK4owQrIwrH2rMJoyaySkfTFiGcksd59lnVnmYmWa83FlevP9lSPVtTPM/kDR8GFM7tCQOrhdQrLbWLfSsfFv4vkzl76kIRh3GU9w/NJECUzn9ZZFnq7QeIs7QIE5JVVVNUu7XY3Fmyr1S2c+lgz3MxDwJI0eqPqeWJTl580UHH2QtGd2hFBp/YjCmcU4bX2zXeKXXm6w63YjRnT3oXzCCYuZ8dYpylxHPCYULRaXg9pl6VQhzW2VNu9dDrDq8pBBMGt1Dj7FBREEzmed4thf0jP9n2oJhUN9z+Z6r7MjNcrMyYSthLa3JMIwdxkmYpTmPhR9vIzNBMnGrmP/IUY5UkY1Sc1Qmp598TxXO/uOPLWDJf1LInBhdOYman3qcukIIKUjqxp1R7KqQVUZXFUXFWJwfJgC1ZlDps1mpi6iJlTylOFj6oHKxQcVYrBwpYzcaoyziS4FaN2jFd7OrgleJkQN2Z6lUpltTxlU4OVBg2S2El4yGuUtWKZH7SPqvaUxIGsn5poz4VlvJs1RslOQBD8xQ4PkAM74CmDcMJXrBf5tV8t/D8NMjFj2a1FEHdDJUimebmpQ5IQapBMuURSwfLhenh4enCYj7lZmGMByVSvyyzdlEI9KpyuFLpN5Z/OghE8xQwrJPMnfPyURSe93actJPwJfuzl+2SrpZUJ4vfzxkJ/5Hd+G7visIqTRVQ4mexEa/Vwx0nlYtP+tn60nH5YBAtUFjtr1MdfrlxfhhvXyQDPdYvS8dppVH2kx2q+E3kwBCtUGAlfvrkLLaaTZ08/YE4WH19WpHXVKN6vvj5z3/+zyC/+MUvfkbLxYsX5T9/gXO1QneVaNcJDS6QpEUKHGYrUn2IvlCYCRvKXNFOnSpahT2Da87OnJpUxmH/ZPxBIA1ReAwF93AI1aKn/aVJ8QcUP1PH393WL1aMr8uMFcnndM2aXECCdH0K4fGOkZypkjso2vm3rll30vjWLz2n3cqLs8Uu3nR8OFPEwOiPmZagUAzXp+j0ORoT3PBkoadC7Zf9xrUKyN5JrzrPOSakzGgZMiyGJMWbnofBf10K4UzVhowaskZTdHWYl78fdXhVEyme7tAv2Gj6GlTBmQ9bhAb8wvNEP6fbMAVUjnzc+M7hf/Sro5TwyEmvabGPXgNZx7QWhnc34t2D7U3sK6UpsIqPKjX8eJyWGZYaLp0t0hMjqzgi6Q+qFpYZsbPUBw0PaGWoEV1YhTtNKENDMctS1jzg5hWJ/rKrg5r+H+vqUBUzHRNrEtWhwt3gFuoUVzDGUxL9BcaTBiLts1Yp/HQFv6B+Z6rjov0jP+0WlztUxchfZFMj2FwR3EK1uFX6G3EdYoZtgEJokUI7sexXK5HLdqgcqdnakdMdKm2eTUFRQw/EhgRwC8W/km6qppEg3iEFTvpQs+v//IEsX0D9m9K4xSxFOwXJv2fWS633d9tZeiru//2cEmlU0gDFVIsUz+l5wPCMKntCj8YtBD9F+/Hk5GT3v+TVkf0MrhaogTijlUYphN0WKWZZyidpGRPALdSxeLGnQ6UlraQvDk9itqgzRKxP4dlpIu3RFB2sSaqy6tziow7zxAwlFmYLs/lGaSquPkVgrbV88UEH6zWs4DKT4Bb0IsbzDtNJqheTuLWHNa1PpKWHBrJeaxWIXbNqRMtct84tZqkJK42E97pJrPObVWPy9p8GdNFa7iaLqYZd+LJ4mXYLweo3LGgzQ8VuQewOr5lbhBuOUYNNqIKmSNGLqQWl9lj8/6d0bvFBh2oww2Vq2vHspNQdKuW4N0VLj7VBCmGriRBlUym0BW0lKlcMJ4tWnVtcpArahNtNRQSyPGKn8/gi9V14v1+GqE8RWG/CoCiK15q1L7dcMeDEAhRRaq4eE+jFpwrH0usfU8QtqKv71e9c+OXZogYohGaqKIqCFLRqiSeXDRftZPBEu4U9Re1ci7L0LhHcA4ZuoV49S4kKUZcisN3M970oCnRu5eYv/lUsPshOF51b0AUt+fIoHVbJlgvq6gsG0xYNUHQ2owqaQjMlPUQPxzVu8aL4mipocQ2W3lQIb7TTG5FeTJ3SSmMU0unmKbQFrWa9VucWdEE7JOA0KZUdwt0f0LlFL/IqWh2KQDMMFAXYPlXQaha29W5xkqI9hRlfs8gDYwvd9Dwt8q6Bd0XxnB6thumNmhq3wNEoNTafJGmGgmSGZv3my4hy6n5nFLOm++p0btHToaElS27UhMgcz5qvd4YbpBCetuYXds3+ZforC3q3uEwVtEiL6yN07/M15nCU3qkXozzNzB2oFNqCVhOhdG5BF7RIS0yKqpvyUZPJIIZaXK6fu0+0UIFgQcvlV4KivNRQPPerZ/6taJ/l0vKrINn9SVZxlUMrC3xCeaGVlX9TPvdw56MUCrIs7iUSvaydu00pZ3ivQEzPK708aRctDpcCFeGU8zrhZ1Vva2Dc3dm4aygUKbXc+UC7xNKlLjlhNfeB8tI/K14o7gdViiUz8Z+kPreRmf+dhm1KpuhSplpSXVoI+0fqNAzw2S8qr1j5CvVQB/u8w0xONlOBEJtqeMyqUPTIYtWLeqpLfNmF/2rqoh713erVetF0TiMUjQ8xbJrZ5vcnDa2INTzc+0lTNDwNoljUe5AWKJrUhalPHqKcbi5GtWBRpkvbhydk2NgURcOjVpni5HuQy01alOdxo3lPyXqSCIJgN5da5+pLs37RYqQVJk8NDe0Vi+L3h/E/ZC+BuCgujFj39qYu4J9FWdRKZWSE1NxC9+QkmVmzFkcmR4pWdQOCVSuNeXeDEBqK4pA49z0nFPGrfSP4e6WnBOsUqV2Le+RLvJmXk+SAKPIeKaGYyWSgoZMz4UwmPDNiFU7NZZjM3JQgvFQ2KzRP0fDom6IQlC/0ZS4gxSRSZMRGj3XPyCfDF6oopvbw0klrt/Q7rXMX9qQLpkbkLzCPtEDRsElRFCMZ7OqXeNuZlzIF82KEUJwirXuBypqxYvulvSEU/aQVLwrj+0/BfzL49rnJDFngUIeqTVE0unJvW1O22E/iXfcu/Dvc8oVKwexho/fwK7B7k8UL2M4iolzA7+p30zqcFFADkx/jlfAZM//+AhWHG0Nm9j7Wb7NvzKKeNByktuSvbHSLys+8GPtYtSh4LUjNwq/RCGMzM0NWxaLEWaupPQI5SbQpWiT2Ar4YOqUf5DVDYX1mabSqdSpfeJDvyGSmZAp8rtacREFG/gJEpikdBcQhcr11stovFF9riUJoAuOEhFG8MDQn9mZYtqiwREYoJsXfRBhDXYTnQMJyD5OYNklMi/gF/kH8IjwUzsydwsig233b4C4vobNxjO2ArAowJuKZCsWk+J1wEoSmukW/QBMbwpXVSXmPtkhRnMMV14/h/Uiy9zGynD37YqwbPe5lSxTNYDjWMK91Ywe+nHmZoSm6J4l29oiJnH1JbF2NUeEpDQUSD40xIsULkmCwS/bw7FhrFIDR8CSCY61TsBbV3xMYUykEYlNj6vf06XwhTud2dYkUqmOdkrPEizH5Xa3kC/HKp40Pvy3PPNaRGdErMmNKjAKPJnBjwojEeHaEyt3S15wuSxTCmPT+Yo+I8aJbypZh/ca+JnY/NjPB5oCIi3XUzNCpEbjl1NQU/h/7WpD+6d6bmYFKxEpOSkJuY/+r3SpdM7I3M7Q3ItgvjsAnkYuF4tjM0FTV9/Ob2cMZaLi2lSNurW8bmX0Vyf4ru+4a+6/t6icZvqupnagTTawrKRG3WbH/6je6I7/5db1dw01RNLVS6dxuDcP+zW91U1i//u2hUkiViNPgkVUG4mhv6eeY7L/7nfZt9jdf1ntPKxRbnY3NiZCIW0969P1s/+qN9sCXb6rn5g5CMbG25sC6dbDBoEsibh35zWsdhvD7V5q+F75+U3czfVMUwplPnjhta9bq3zwzVYdS45qJ/ddd2gNA8ZVm1ebVZrVGde9pbre8YA2csPgeP2si4p6pN1vYs6HtauEPb/cpDQLU11W71y/qDjS953+ic6ep9aW6Edf+zTfanyr79u1bemyz//YrHUWV+lr45oKwa7E2swpeN+L2vPmtppnfzs//QT3w3XzfH3Qx65uLekdpnsKz7dsSGofAH0+o7eLCf7z5km7nd6Ojf1Te4fl+fv477eXf/KrK25unmNh27qtV/jMAAAwySURBVE404RkYca01I27Xm1f/paUYVa4X4IWmJZ7/MAi8rejCkXvmaW57SO2IK3z1ap96+axUKj2Vq6Y/lEqjdBd4vnpjkMlb8gtoVVNbdSw2x9NaEbfr7du/qZhT2Wz2L9LLiT9lS6PUWz1fGcXdVr6XhAtkjmYqKpSaEVf489u+PyptFXLZXFa6ujOXzf6nCuj5/q3G+A5AQeqQJiHg8wx+W0SV+fnRP8uNncjlcg5pz8Bj+PsvlKu/ffuVkW22StG8OJ+YYwh/Hh0tbclWlMNfwCAvBnOWnG1HNqGJ7+f7+oyb9N4oLM71Gi4+Wipln4nNDUDR7PwUDUx46nTZHFsSxcRfRufnvzWMdi19X68lCDXiXtYXgNCMP+ODf8W/A2s+3/Hj6BgT28d9Pp+8leMv4Oh/NO6IViia2j9PixRx7R/96jd6DgGfXizOVQfWjoNgrPXgH8cnJIhctlQyaVRLuvBsOR2NjZT0GLanBKNn41e/0c0o7eRyUrES+BTb/oMHjuEfnxF3Gjxhg3D13yY22do3QD13Tli3W/PxO2IM/ebN7/5L0yQPPkb6+A9wduJTqfGDn+EfnwYIhBMfNlGddOz2110tf49V8AjNTCXQGGLEFX7/5s3X31Ecnh0nusMdj3XiCTEkq9B5XFKKdfCH4z5IUs+qSvSuv5L6tkUKK7peixhixBW+fPXq7d++U4fmARdp9DPB8wP548yg+C/EXPzL53M+0arCLnz5zcblRr9dZaIN6XeCWsBYJ62x/8v+2775vz2Vf99J9ILjx4WJx+TfTz/xHRfdXMJx0RZo93T+fvnNN9aGv11lDPF0q9ENCVWi1Lhf47NW/rQVEF8Niq3+7BMJZ1f8p1OCOL5FVSLCt1+/erOpFPQtU9zx1WlrDbFZxJ9r82DKzmbbxd/39JwRW7u9Jf77mfjPJ6Jqjn8qp35h4tn3fW/fvvqdVQnXLVM084WGagzbrojxLaTsbM6xdmcQfVhq96fHKflM0sxxGUH47z9BDu/b/5IODa1SnDkIhRJxhWfk6T3O45+dGfR47hyvFp/0LymsPINPn+DDfUbnv9cMvFq3qINRYMQNBAITgYk/5XI2bCpwfPKZAYakkkHpN6jxEUWl0W+16a/1GNVaSagKvH9trX37yc4apjvS0jNPTSk6A4NbYGk+G1Bk/0c/Am6d4mnzY4wqseGjSsjH4KNgFIeulsfWHwipD58XVT1T13rWE4RmvsjXKJbLZ0ihOLzPuW0wFdE6BXzYAV3DVIhejMV3x2jka05h/Et9tEw09WMCzaMY6UQwrGpNKRw79bdjDja+X/hwSO6YDHo9onFrKcS1lkYwmp0KORCJiSLAtKUf4qQpjhxrFzFqzlpgDwzutloRakX/SIoqISBbn3gMn/fjUTYU+K5TFG0yRq3pbk8AHxVyOKoYzVrEJ9jVAnnyww+Pd3bubD191onP9CFEuH/Qs6uDkCgAQ/xhZ9PJF2HCulP1kJCWxZbF5/Et788jjCmLzeEkduV0iE8Y/Nvfvv76q6+++uuf5WbIEEeYozLGbRHDcNbeE3i6bfqwqVbEleuVnuTYu7w/mnOZP9PLR/JeFin6+t6+evXmVp8cYHzXJIijzBXlydefk8pbGtFoGISdw7IkRWyWDelRwsgSulXrIXc2iWL+7f7Xv//yP2UIp/zMaHyeuopxnWCIG2xUUwp0PrFVWdIhPJLOtRyiviJCHjg4jw8cNLw4V/qf7//wndXjGVR+tNlxn4KgMa45RQx1uVcIPNM/oYUUDdmDU1h8ytOpVRJ2ed74iXFrJ6ZgQAI1kNQYm+WqBoLGuC8mRHnxQQjsrutNyeZylc73RkqHYGG+Ph2GpJPzJQOVOJzbTweVCGuzfChDXJL391xSMG6Sy2wOMhUWeKZncCECPlrx1gFGrxTGaDUGkkRCy6NVD5vCh3EoEGtHqiBojA/FC2FgpnvohIU8nmwfEMiNRht81mFtcWVDRhhEJbfmq5+aJf3rWDsmQ8wxlMwpGMfWpDR+Qv+gH9v8RkS5aYSdPxSMXK8xBlHJ8qjL4Ely6iPU245qH93EhI+2yYlDfF6G5mEs5ClxIU2/hc4fyqMzfedNtCFqJGTwVD/lcfZH9RCIoeY/vdG7fKVbEd3dQoeiC4tr3tA1KIXon7Co5rqjBg9vyrTpEodyI9d8b/WtItnDeYxpVbw1sqyScrlNTROPjJ5AxWQeKRjn1GrD5epjjZR+WBQW32YNm5LutalAqGnihhEDyq6CcVWJB/OGDBilDonCNVqPIjIv24ZDjbD3zCAY5p6CcUQMVTXMNnQ4ECB1PIPNyhDOdiXC3jWHoNK4XKr7SmY9FTksCN9mLYzQhlK0KcFJk+uM5JIaccUal9TQRp++fCjpm9zCoBJR+mpTMVynHJzatLnOSOZkDNnHXa5l4zqhFyKgr6mndpuJL2uW+1SXsFluKhG2Kk1Ui5I4FB/37RtjbJzfXF7e3NzvK1UXPU1iGNttqFcJhI61B7UjrF4yN9RypL2mc4QkiUQ25g+iEJPPj9xSXEIpOo4c3W2EAeWe6uOyc2zUCYeR3lzrEMa6juwrngcDbBmiZnDSihKqYOQkOUfNQIJ6ablYdxlChEKlapeoG5y0ckn18YeSc9QpeNARif6btizfLSMINcBSLtGIX9NC+bjkHGYhl7KAnA1iVrbZ9YGcQffQ1nRbsabG/JoW1cfbjl0nGDaTkKv2H04ybUTY5iosV7bqU0Pqg/5sjmsKRI2iw1zuqs5xs0GrkoyhOQ+x6T+Uik2O3FUl1V1pBULjHG2yVdWLVUSay4M+XcqL9Cm9AAFWcYm6+dpMVOeQrQof+VgXYsOXbWZYrqWATGdkTc27hCqqc6hWVTIp1SnZ3696uK65uEp0v0DdVG1NLbqEKpRzyLHKUsfJMdaDp59v0KzokXcopD5I1adYU1tzWcJILmmsSnbyBrwDqsVGMOicR7m1zaZaU7NZwkgyR1R1XM2JY6fcRiPBKlKqb1V0nFULWItTyXRNFE615R5lVdL8iNHkpAHGaAMYysUbiu5sTmU81HKArRbaqu6LTt6YOiKlukYl1x8QXxW3tqhufRjWJEv4EaWOdbHM9c2H6ntHJFe3HIlIiqBLjsO2JlnUWNV27JysjrrBimV76yjDhVVUSKOI+6pbHzg26UW1qiPHjkgPDfaN1s0doc1aruHy5eZ78WHbCqsaXyGoHKI1yUJlwLZj1yR1WOoNO2rOvrlKvZEQnSMoRTQ1HmpGrlDqaFuXglW2npeb14Y+rPWph23baI9ovW6qJ+EjGu8Qc0c9LzdRhstngXwX2siqisjdVBWxe4C6qa7cVcpczB1OyazO18rl0vPCNQQun6u0icbU55JjGOYIVRGH7tZamTtKqePmmujlNaNVaJ+msLl8Pktp/1YoojEmSNYPVUXceJeKEEWjjus2UR2+kql7hOTBJ4w6fJZs3yZ6NFoabUyWa+9PEaJQ6oCgu+6TOEbNhuVYbKMNZec3NyIRyYlCveoQhPbq96IIUSh1UGblM1sk6PVpAJCBnVeHUc72q6oxvR9FiBJuo9QBycMhmYwJRygS0u4z6FPHHg7LOUURbe82NFXLFdqsjn0urT0ZL57pkEL7qlM7bNcpY3qfihAlfIM2qwfy+r7LNbpRM+6yFIPNAQ6hGtM7Sta1haqsgONqu7Q0DfFq2Ywj0tun7lKzOW8/UBiOHH30DqqmRiRzV2NWN2UOmy+3b+AgocgGNTVic64/pBjevzGpQpsVzYGGpVshD4U2sxqGq7RD3Hu/Xq0X2qy0HL5cX68MAmqgd3UQPSgMbUdv/EjGRMkVLcdVdR8P7n7BRB3Z6KO3Dzhstz9UGX5cY1Ilc0/L8eFtm0MxLNCIBsHmtFxX4xIyHNrswEEF3IPiaIPyas1HbV6wqAy+9nNahrs/rkNopYrj5nrVnk9Qw+eUO/wEnLpa5h7RHGBYx66tOVUQm8OxrlEDMvz4Tl0tOg5QyIfXRRBAaIfSm1LDT5UBZU5jVxJIu8Oyjghtfx8MKOFdLQeCHNMh/NR82kjCUJa0aUGOaBGOXvmpM6BkIA9qFUIz3PhJ5LiGZG5XrxBJDXd/yu5QLdUKQTX8PZiSTuaeqiDoDX9faqBkDlydyN+ZJVVJ+Mruu9fC/wJaXrl6azdEggAAAABJRU5ErkJggg==;" vertex="1" parent="1">
          <mxGeometry x="102.22999999999999" y="440" width="69.53" height="90" as="geometry" />
        </mxCell>
        <mxCell id="_3J3xNJMLdF8mFdf4bfr-23" style="edgeStyle=orthogonalEdgeStyle;rounded=0;orthogonalLoop=1;jettySize=auto;html=1;exitX=0.995;exitY=0.63;exitDx=0;exitDy=0;exitPerimeter=0;entryX=0;entryY=0.5;entryDx=0;entryDy=0;" edge="1" parent="1" source="_3J3xNJMLdF8mFdf4bfr-18" target="_3J3xNJMLdF8mFdf4bfr-20">
          <mxGeometry relative="1" as="geometry">
            <Array as="points">
              <mxPoint x="325" y="485" />
            </Array>
          </mxGeometry>
        </mxCell>
        <mxCell id="_3J3xNJMLdF8mFdf4bfr-18" value="" style="aspect=fixed;sketch=0;html=1;dashed=0;whitespace=wrap;verticalLabelPosition=bottom;verticalAlign=top;fillColor=#2875E2;strokeColor=#ffffff;points=[[0.005,0.63,0],[0.1,0.2,0],[0.9,0.2,0],[0.5,0,0],[0.995,0.63,0],[0.72,0.99,0],[0.5,1,0],[0.28,0.99,0]];shape=mxgraph.kubernetes.icon2;kubernetesLabel=1;prIcon=api" vertex="1" parent="1">
          <mxGeometry x="275" y="461" width="50" height="48" as="geometry" />
        </mxCell>
        <mxCell id="_3J3xNJMLdF8mFdf4bfr-19" style="edgeStyle=orthogonalEdgeStyle;rounded=0;orthogonalLoop=1;jettySize=auto;html=1;exitX=1;exitY=0.5;exitDx=0;exitDy=0;entryX=0.032;entryY=0.483;entryDx=0;entryDy=0;entryPerimeter=0;" edge="1" parent="1" source="_3J3xNJMLdF8mFdf4bfr-12" target="_3J3xNJMLdF8mFdf4bfr-18">
          <mxGeometry relative="1" as="geometry" />
        </mxCell>
        <mxCell id="_3J3xNJMLdF8mFdf4bfr-20" value="Data Processing" style="rounded=1;whiteSpace=wrap;html=1;" vertex="1" parent="1">
          <mxGeometry x="400" y="451" width="90" height="68" as="geometry" />
        </mxCell>
        <mxCell id="_3J3xNJMLdF8mFdf4bfr-25" value="" style="verticalLabelPosition=bottom;html=1;verticalAlign=top;align=center;strokeColor=none;fillColor=#00BEF2;shape=mxgraph.azure.script_file;pointerEvents=1;" vertex="1" parent="1">
          <mxGeometry x="421.25" y="370" width="47.5" height="50" as="geometry" />
        </mxCell>
        <mxCell id="_3J3xNJMLdF8mFdf4bfr-26" style="edgeStyle=orthogonalEdgeStyle;rounded=0;orthogonalLoop=1;jettySize=auto;html=1;exitX=0.5;exitY=0;exitDx=0;exitDy=0;entryX=0.5;entryY=1;entryDx=0;entryDy=0;entryPerimeter=0;" edge="1" parent="1" source="_3J3xNJMLdF8mFdf4bfr-20" target="_3J3xNJMLdF8mFdf4bfr-25">
          <mxGeometry relative="1" as="geometry" />
        </mxCell>
        <mxCell id="_3J3xNJMLdF8mFdf4bfr-32" style="edgeStyle=orthogonalEdgeStyle;rounded=0;orthogonalLoop=1;jettySize=auto;html=1;exitX=0.5;exitY=0;exitDx=0;exitDy=0;exitPerimeter=0;entryX=0.5;entryY=1;entryDx=0;entryDy=0;" edge="1" parent="1" source="_3J3xNJMLdF8mFdf4bfr-28" target="_3J3xNJMLdF8mFdf4bfr-8">
          <mxGeometry relative="1" as="geometry" />
        </mxCell>
        <mxCell id="_3J3xNJMLdF8mFdf4bfr-28" value="" style="aspect=fixed;sketch=0;html=1;dashed=0;whitespace=wrap;verticalLabelPosition=bottom;verticalAlign=top;fillColor=#2875E2;strokeColor=#ffffff;points=[[0.005,0.63,0],[0.1,0.2,0],[0.9,0.2,0],[0.5,0,0],[0.995,0.63,0],[0.72,0.99,0],[0.5,1,0],[0.28,0.99,0]];shape=mxgraph.kubernetes.icon2;kubernetesLabel=1;prIcon=api" vertex="1" parent="1">
          <mxGeometry x="275" y="370" width="50" height="48" as="geometry" />
        </mxCell>
        <mxCell id="_3J3xNJMLdF8mFdf4bfr-29" style="edgeStyle=orthogonalEdgeStyle;rounded=0;orthogonalLoop=1;jettySize=auto;html=1;exitX=0;exitY=0.5;exitDx=0;exitDy=0;exitPerimeter=0;entryX=0.995;entryY=0.63;entryDx=0;entryDy=0;entryPerimeter=0;" edge="1" parent="1" source="_3J3xNJMLdF8mFdf4bfr-25" target="_3J3xNJMLdF8mFdf4bfr-28">
          <mxGeometry relative="1" as="geometry">
            <Array as="points">
              <mxPoint x="421" y="400" />
            </Array>
          </mxGeometry>
        </mxCell>
        <mxCell id="_3J3xNJMLdF8mFdf4bfr-31" value="" style="shape=flexArrow;endArrow=classic;startArrow=classic;html=1;rounded=0;entryX=0.005;entryY=0.63;entryDx=0;entryDy=0;entryPerimeter=0;" edge="1" parent="1" target="_3J3xNJMLdF8mFdf4bfr-28">
          <mxGeometry width="100" height="100" relative="1" as="geometry">
            <mxPoint x="137" y="350" as="sourcePoint" />
            <mxPoint x="240" y="331" as="targetPoint" />
            <Array as="points">
              <mxPoint x="137" y="400" />
            </Array>
          </mxGeometry>
        </mxCell>
        <mxCell id="_3J3xNJMLdF8mFdf4bfr-33" value="" style="aspect=fixed;sketch=0;html=1;dashed=0;whitespace=wrap;verticalLabelPosition=bottom;verticalAlign=top;fillColor=#2875E2;strokeColor=#ffffff;points=[[0.005,0.63,0],[0.1,0.2,0],[0.9,0.2,0],[0.5,0,0],[0.995,0.63,0],[0.72,0.99,0],[0.5,1,0],[0.28,0.99,0]];shape=mxgraph.kubernetes.icon2;kubernetesLabel=1;prIcon=api" vertex="1" parent="1">
          <mxGeometry x="275" y="160" width="50" height="48" as="geometry" />
        </mxCell>
        <mxCell id="_3J3xNJMLdF8mFdf4bfr-34" value="" style="verticalLabelPosition=bottom;html=1;verticalAlign=top;align=center;strokeColor=none;fillColor=#00BEF2;shape=mxgraph.azure.script_file;pointerEvents=1;" vertex="1" parent="1">
          <mxGeometry x="421.25" y="158" width="47.5" height="50" as="geometry" />
        </mxCell>
        <mxCell id="_3J3xNJMLdF8mFdf4bfr-35" style="edgeStyle=orthogonalEdgeStyle;rounded=0;orthogonalLoop=1;jettySize=auto;html=1;exitX=0.5;exitY=0;exitDx=0;exitDy=0;entryX=0.5;entryY=1;entryDx=0;entryDy=0;entryPerimeter=0;" edge="1" parent="1" source="_3J3xNJMLdF8mFdf4bfr-10" target="_3J3xNJMLdF8mFdf4bfr-34">
          <mxGeometry relative="1" as="geometry" />
        </mxCell>
        <mxCell id="_3J3xNJMLdF8mFdf4bfr-36" style="edgeStyle=orthogonalEdgeStyle;rounded=0;orthogonalLoop=1;jettySize=auto;html=1;exitX=0;exitY=0.5;exitDx=0;exitDy=0;exitPerimeter=0;entryX=0.995;entryY=0.63;entryDx=0;entryDy=0;entryPerimeter=0;" edge="1" parent="1" source="_3J3xNJMLdF8mFdf4bfr-34" target="_3J3xNJMLdF8mFdf4bfr-33">
          <mxGeometry relative="1" as="geometry">
            <Array as="points">
              <mxPoint x="421" y="190" />
            </Array>
          </mxGeometry>
        </mxCell>
        <mxCell id="_3J3xNJMLdF8mFdf4bfr-38" value="" style="shape=flexArrow;endArrow=classic;startArrow=classic;html=1;rounded=0;entryX=0.005;entryY=0.63;entryDx=0;entryDy=0;entryPerimeter=0;" edge="1" parent="1">
          <mxGeometry width="100" height="100" relative="1" as="geometry">
            <mxPoint x="137" y="150" as="sourcePoint" />
            <mxPoint x="275" y="189" as="targetPoint" />
            <Array as="points">
              <mxPoint x="137" y="189" />
            </Array>
          </mxGeometry>
        </mxCell>
        <mxCell id="_3J3xNJMLdF8mFdf4bfr-44" style="edgeStyle=orthogonalEdgeStyle;rounded=0;orthogonalLoop=1;jettySize=auto;html=1;exitX=1;exitY=0.5;exitDx=0;exitDy=0;exitPerimeter=0;entryX=0;entryY=0.5;entryDx=0;entryDy=0;" edge="1" parent="1" source="_3J3xNJMLdF8mFdf4bfr-41" target="_3J3xNJMLdF8mFdf4bfr-43">
          <mxGeometry relative="1" as="geometry" />
        </mxCell>
        <mxCell id="_3J3xNJMLdF8mFdf4bfr-41" value="Notebook&lt;div&gt;&lt;br&gt;&lt;/div&gt;" style="html=1;whiteSpace=wrap;strokeColor=none;fillColor=#0079D6;labelPosition=center;verticalLabelPosition=middle;verticalAlign=top;align=center;fontSize=12;outlineConnect=0;spacingTop=-6;fontColor=#FFFFFF;sketch=0;shape=mxgraph.sitemap.script;" vertex="1" parent="1">
          <mxGeometry x="400" y="39" width="80" height="100" as="geometry" />
        </mxCell>
        <mxCell id="_3J3xNJMLdF8mFdf4bfr-42" style="edgeStyle=orthogonalEdgeStyle;rounded=0;orthogonalLoop=1;jettySize=auto;html=1;exitX=0.5;exitY=0;exitDx=0;exitDy=0;exitPerimeter=0;entryX=0;entryY=0.5;entryDx=0;entryDy=0;entryPerimeter=0;" edge="1" parent="1" source="_3J3xNJMLdF8mFdf4bfr-33" target="_3J3xNJMLdF8mFdf4bfr-41">
          <mxGeometry relative="1" as="geometry" />
        </mxCell>
        <mxCell id="_3J3xNJMLdF8mFdf4bfr-43" value="ROI&lt;br&gt;&lt;div&gt;Database&lt;/div&gt;" style="shape=datastore;whiteSpace=wrap;html=1;" vertex="1" parent="1">
          <mxGeometry x="560" y="59" width="60" height="60" as="geometry" />
        </mxCell>
      </root>
    </mxGraphModel>
  </diagram>
</mxfile>
